<svg width="1440" height="984" viewBox="0 0 1440 984" fill="none" xmlns="http://www.w3.org/2000/svg">
    <g clip-path="url(#clip0_2_4)">
    <rect width="1440" height="984" fill="url(#paint0_linear_2_4)"/>
    <path d="M3258 -2163C3258 -612.184 2000.82 645 450 645C-1100.82 645 -2358 -612.184 -2358 -2163C-2358 -3713.82 -1100.82 -4971 450 -4971C2000.82 -4971 3258 -3713.82 3258 -2163Z" fill="#009CD4"/>
    <circle cx="-85" cy="-760" r="1003" fill="#008EC6"/>
    <path d="M86.5031 244.533C145.893 229.367 189.806 175.511 189.806 111.399C189.806 35.5154 128.288 -26 52.4028 -26C-23.4827 -26 -85 35.5154 -85 111.399C-85 175.524 -41.0695 229.389 18.3386 244.542C18.1619 245.935 18.0707 247.353 18.0707 248.79V615.186C18.0707 616.631 18.1629 618.056 18.3416 619.457C-41.068 634.609 -85 688.475 -85 752.601C-85 828.485 -23.4827 890 52.4028 890C128.288 890 189.806 828.485 189.806 752.601C189.806 688.488 145.891 634.631 86.5001 619.467C86.6796 618.063 86.7721 616.634 86.7721 615.186V420.08C123.413 450.308 173.336 466.338 235.625 466.338H556.232C557.658 466.338 559.065 466.248 560.449 466.074C575.601 525.482 629.469 569.413 693.597 569.413C769.483 569.413 831 507.898 831 432.014C831 356.131 769.483 294.616 693.597 294.616C629.487 294.616 575.632 338.522 560.462 397.904C559.074 397.729 557.662 397.638 556.232 397.638H235.625C135.321 397.638 86.7721 349.091 86.7721 248.79C86.7721 247.35 86.6806 245.929 86.5031 244.533Z" fill="white" fill-opacity="0.16"/>
    </g>
    <defs>
    <linearGradient id="paint0_linear_2_4" x1="720" y1="0" x2="720" y2="984" gradientUnits="userSpaceOnUse">
    <stop stop-color="#007CB4"/>
    <stop offset="1" stop-color="#00BAF2"/>
    </linearGradient>
    <clipPath id="clip0_2_4">
    <rect width="1440" height="984" fill="white"/>
    </clipPath>
    </defs>
    </svg>
    