<svg width="1440" height="984" viewBox="0 0 1440 984" fill="none"
    xmlns="http://www.w3.org/2000/svg">
    <rect width="1440" height="984" fill="white"/>
    <rect width="1440" height="984" fill="url(#paint0_linear_6_5945)" fill-opacity="0.12"/>
    <g opacity="0.6">
        <g opacity="0.35">
            <path d="M1208.18 659.914C1189.88 594.212 1248.08 591.689 1249.37 507.037C1249.89 472.405 1230.92 437.154 1185.3 420.976C1162.86 413.035 1140.52 407.568 1120.56 394.928C1075.09 366.133 1075.91 311.315 1063.49 264.611C1036.23 161.976 822.798 80.3922 716.65 83.0638C640.138 84.9686 604.837 121.852 535.078 186.788C487.36 231.216 403.253 227.208 427.767 342.014C449.586 444.279 398.107 436.684 350.958 474.434C303.908 512.109 269.448 557.056 288.175 608.065C308.83 664.317 182.422 696.6 159.887 769.501C144.599 818.951 224.921 823.131 279.591 823.131C334.26 823.131 801.945 818.926 999.745 824.789C1052.98 826.372 1222.85 840.868 1246.9 774.498C1263.25 729.327 1220.97 705.827 1208.18 659.939V659.914Z" fill="#C3ECFE"/>
        </g>
        <path d="M1268.89 639.455C1229.36 731.454 1153.19 806.556 1061.89 847.249" stroke="#C3ECFE" stroke-width="4.31863" stroke-miterlimit="10"/>
        <path d="M1257.29 663.92C1271.09 652.417 1280.54 635.819 1283.36 618.082C1284.05 613.728 1284.2 608.781 1281.28 605.491C1280.49 604.575 1279.43 603.833 1278.22 603.71C1276.29 603.512 1274.58 604.946 1273.27 606.406C1266.39 614.124 1264.02 624.786 1262.83 635.052C1261.64 645.318 1259.42 652.838 1257.26 663.92" fill="#C3ECFE"/>
        <path d="M1238.51 695.261C1246.63 679.231 1248.73 660.258 1244.28 642.843C1243.19 638.588 1241.36 633.987 1237.38 632.107C1236.29 631.587 1235 631.34 1233.86 631.686C1232.01 632.28 1230.99 634.259 1230.4 636.114C1227.16 645.91 1229.21 656.671 1232.18 666.566C1235.17 676.461 1236.09 684.253 1238.54 695.261" fill="#C3ECFE"/>
        <path d="M1210.88 733.83C1220.9 718.914 1225.28 700.336 1223 682.5C1222.43 678.122 1221.2 673.347 1217.46 670.997C1216.45 670.354 1215.21 669.934 1214.02 670.156C1212.12 670.503 1210.88 672.358 1210.04 674.114C1205.61 683.44 1206.33 694.374 1208.09 704.541C1209.84 714.708 1209.82 722.575 1210.88 733.805" fill="#C3ECFE"/>
        <path d="M1179.14 767.622C1189.16 752.705 1193.54 734.128 1191.27 716.292C1190.7 711.913 1189.46 707.139 1185.72 704.789C1184.71 704.146 1183.47 703.725 1182.29 703.948C1180.38 704.294 1179.14 706.15 1178.3 707.906C1173.88 717.232 1174.59 728.166 1176.35 738.333C1178.11 748.525 1178.08 756.366 1179.14 767.597" fill="#C3ECFE"/>
        <path d="M1131.6 806.605C1143.1 792.802 1149.41 774.768 1148.99 756.809C1148.89 752.406 1148.12 747.508 1144.66 744.811C1143.69 744.069 1142.53 743.525 1141.32 743.624C1139.37 743.772 1137.96 745.504 1136.94 747.161C1131.57 755.993 1131.15 766.927 1131.85 777.217C1132.54 787.533 1131.7 795.325 1131.6 806.605Z" fill="#C3ECFE"/>
        <path d="M1094.34 831.492C1105.67 819.222 1112.97 802.079 1114.5 784.219C1114.87 779.84 1114.75 774.893 1112.08 771.776C1111.34 770.91 1110.4 770.242 1109.36 770.193C1107.67 770.119 1106.29 771.628 1105.22 773.161C1099.71 781.275 1098.17 792.061 1097.68 802.376C1097.19 812.692 1095.63 820.335 1094.34 831.517" fill="#C3ECFE"/>
        <path d="M1229.11 709.066C1247.32 712.059 1266.98 708.299 1283.36 698.651C1287.37 696.276 1291.52 693.085 1292.39 688.633C1292.61 687.421 1292.56 686.085 1291.89 685.07C1290.83 683.438 1288.56 683.067 1286.55 683.042C1275.84 682.894 1265.55 688.163 1256.37 694.1C1247.19 700.037 1239.58 703.327 1229.11 709.041" fill="#C3ECFE"/>
        <path d="M1206.8 738.253C1223.77 745.526 1243.76 746.54 1261.96 741.098C1266.42 739.762 1271.24 737.66 1273.12 733.529C1273.64 732.391 1273.89 731.104 1273.49 729.966C1272.85 728.136 1270.75 727.245 1268.79 726.726C1258.43 724.005 1247.17 726.676 1236.85 730.239C1226.51 733.801 1218.33 735.186 1206.82 738.253" fill="#C3ECFE"/>
        <path d="M1173.45 772.271C1188.64 782.785 1208.01 787.782 1226.93 786.1C1231.58 785.679 1236.71 784.591 1239.38 780.93C1240.12 779.915 1240.61 778.703 1240.47 777.516C1240.19 775.586 1238.31 774.275 1236.51 773.385C1226.91 768.66 1215.33 769.006 1204.5 770.441C1193.66 771.876 1185.38 771.579 1173.45 772.271Z" fill="#C3ECFE"/>
        <path d="M1126.8 811.554C1143.94 818.431 1163.93 819.025 1182.01 813.162C1186.44 811.727 1191.19 809.526 1193 805.345C1193.49 804.207 1193.71 802.896 1193.29 801.758C1192.6 799.928 1190.47 799.086 1188.52 798.616C1178.1 796.143 1166.92 799.062 1156.66 802.847C1146.39 806.631 1138.25 808.19 1126.8 811.529" fill="#C3ECFE"/>
        <path d="M1089.1 834.087C1101.29 847.94 1118.91 857.488 1137.68 860.382C1142.28 861.1 1147.53 861.248 1151.02 858.354C1151.98 857.562 1152.77 856.499 1152.9 855.287C1153.09 853.357 1151.58 851.625 1150.05 850.339C1141.86 843.437 1130.56 841.013 1119.7 839.776C1108.84 838.539 1100.85 836.264 1089.15 834.087" fill="#C3ECFE"/>
        <path d="M1045.36 445.909C1044.86 445.884 1044.47 445.488 1044.44 444.994L1044.1 440.071C1044.05 439.527 1044.47 439.057 1045.01 439.032C1045.53 438.982 1046.03 439.403 1046.05 439.947L1046.4 444.87C1046.45 445.414 1046.03 445.884 1045.48 445.909C1045.43 445.909 1045.41 445.909 1045.36 445.909Z" fill="#599FD2"/>
        <path d="M1067.45 669.512L1054.46 670.427L1039.99 460.753L1046.5 460.308L1052.98 459.838L1067.45 669.512Z" fill="#C3ECFE"/>
        <path d="M1046.59 442.894L1043.95 443.067L1039.99 460.754L1052.98 459.839L1046.59 442.894Z" fill="#C3ECFE"/>
        <path d="M410.303 495.062C433.433 621.445 521.522 734.099 638.604 787.012" stroke="#C3ECFE" stroke-width="4.31863" stroke-miterlimit="10"/>
        <path d="M416.161 521.508C405.277 507.235 399.761 488.929 400.948 471.019C401.245 466.616 402.21 461.768 405.797 459.22C406.786 458.527 407.973 458.032 409.186 458.181C411.115 458.428 412.476 460.185 413.391 461.891C418.363 470.945 418.314 481.879 417.176 492.145C416.038 502.411 416.557 510.253 416.161 521.508Z" fill="#C3ECFE"/>
        <path d="M427.468 556.264C423.139 538.824 425.315 519.85 433.528 503.87C435.532 499.962 438.352 495.88 442.656 494.94C443.844 494.692 445.13 494.717 446.169 495.311C447.851 496.3 448.371 498.453 448.569 500.407C449.533 510.698 445.155 520.716 440.034 529.671C434.914 538.651 432.267 546.047 427.443 556.239" fill="#C3ECFE"/>
        <path d="M445.799 599.999C439.368 583.227 439.219 564.13 445.428 547.259C446.937 543.128 449.238 538.724 453.394 537.289C454.532 536.894 455.818 536.745 456.931 537.24C458.712 538.007 459.504 540.085 459.924 541.99C462.151 552.082 459.009 562.546 455.026 572.095C451.044 581.619 449.337 589.287 445.774 599.999" fill="#C3ECFE"/>
        <path d="M469.202 640C462.77 623.228 462.622 604.131 468.806 587.26C470.315 583.129 472.616 578.726 476.771 577.291C477.909 576.895 479.196 576.747 480.309 577.241C482.09 578.008 482.882 580.086 483.302 581.991C485.528 592.084 482.387 602.548 478.404 612.096C474.421 621.62 472.714 629.289 469.152 640" fill="#C3ECFE"/>
        <path d="M506.876 688.632C498.737 672.627 496.61 653.628 501.038 636.213C502.126 631.934 503.957 627.332 507.94 625.477C509.028 624.958 510.314 624.686 511.452 625.057C513.308 625.65 514.322 627.629 514.94 629.485C518.205 639.281 516.177 650.041 513.184 659.936C510.215 669.831 509.3 677.623 506.876 688.632Z" fill="#C3ECFE"/>
        <path d="M537.624 721.215C529.337 706.719 526.022 688.388 528.495 670.627C529.114 666.273 530.326 661.474 533.641 659.025C534.556 658.357 535.62 657.887 536.659 658.085C538.316 658.382 539.33 660.188 540.023 661.895C543.61 671.023 542.67 681.882 540.864 692.049C539.058 702.216 538.86 710.009 537.624 721.19" fill="#C3ECFE"/>
        <path d="M433.554 571.798C415.125 570.66 396.794 562.595 382.991 549.559C379.602 546.368 376.262 542.311 376.435 537.784C376.485 536.547 376.831 535.261 377.697 534.42C379.107 533.059 381.383 533.207 383.362 533.628C393.826 535.854 402.682 543.3 410.326 551.117C417.969 558.959 424.649 563.857 433.554 571.773" fill="#C3ECFE"/>
        <path d="M448.817 605.219C430.66 608.509 410.944 605.07 394.395 595.695C390.338 593.394 386.133 590.278 385.217 585.825C384.97 584.613 384.995 583.277 385.638 582.263C386.677 580.605 388.928 580.209 390.957 580.16C401.668 579.838 412.033 584.934 421.309 590.723C430.586 596.511 438.254 599.678 448.817 605.219Z" fill="#C3ECFE"/>
        <path d="M473.728 645.837C456.585 652.714 436.573 653.258 418.514 647.395C414.086 645.961 409.337 643.734 407.531 639.578C407.036 638.441 406.814 637.129 407.234 635.992C407.927 634.161 410.054 633.32 412.008 632.85C422.423 630.376 433.604 633.32 443.87 637.129C454.111 640.939 462.275 642.497 473.703 645.837" fill="#C3ECFE"/>
        <path d="M510.44 694.523C492.208 697.418 472.567 693.534 456.24 683.787C452.233 681.388 448.102 678.172 447.285 673.719C447.063 672.482 447.137 671.171 447.805 670.157C448.893 668.524 451.144 668.178 453.173 668.153C463.884 668.054 474.15 673.398 483.278 679.384C492.431 685.37 500.025 688.71 510.44 694.498" fill="#C3ECFE"/>
        <path d="M542.176 724.899C527.185 735.685 507.915 741.053 488.966 739.717C484.316 739.395 479.17 738.381 476.424 734.769C475.682 733.78 475.138 732.568 475.286 731.356C475.509 729.426 477.389 728.09 479.17 727.175C488.694 722.277 500.246 722.425 511.106 723.638C521.966 724.874 530.253 724.429 542.176 724.899Z" fill="#C3ECFE"/>
        <path d="M182.42 671.54C310.758 665.677 440.332 726.234 518.205 828.424" stroke="#C3ECFE" stroke-width="4.31863" stroke-miterlimit="10"/>
        <path d="M209.509 671.292C193.157 663.87 174.085 662.634 156.892 667.828C152.687 669.09 148.16 671.143 146.478 675.2C146.008 676.313 145.81 677.6 146.231 678.738C146.898 680.568 148.927 681.483 150.807 682.003C160.751 684.823 171.388 682.3 181.135 678.886C190.881 675.472 198.649 674.211 209.533 671.292" fill="#C3ECFE"/>
        <path d="M245.898 674.508C227.939 674.186 209.93 680.593 196.226 692.195C192.862 695.04 189.522 698.701 189.596 703.104C189.596 704.316 189.918 705.578 190.759 706.444C192.095 707.854 194.321 707.903 196.251 707.631C206.492 706.271 215.274 699.74 222.868 692.739C230.462 685.739 237.067 681.508 245.923 674.508" fill="#C3ECFE"/>
        <path d="M292.652 682.546C274.865 680.048 256.213 684.204 241.173 694.025C237.487 696.424 233.727 699.665 233.257 704.043C233.134 705.255 233.282 706.542 233.999 707.506C235.162 709.065 237.364 709.386 239.318 709.362C249.658 709.263 259.157 703.87 267.543 697.834C275.929 691.823 283.029 688.409 292.652 682.571" fill="#C3ECFE"/>
        <path d="M336.88 696.374C319.093 693.876 300.441 698.032 285.401 707.852C281.715 710.252 277.955 713.492 277.485 717.871C277.362 719.083 277.51 720.369 278.227 721.334C279.39 722.893 281.592 723.214 283.546 723.189C293.886 723.09 303.385 717.698 311.771 711.662C320.157 705.651 327.257 702.237 336.88 696.399" fill="#C3ECFE"/>
        <path d="M392.716 722.152C375.276 717.823 356.302 720.025 340.322 728.237C336.414 730.241 332.332 733.061 331.392 737.366C331.145 738.553 331.169 739.839 331.788 740.878C332.777 742.56 334.929 743.08 336.884 743.278C347.174 744.243 357.193 739.864 366.148 734.743C375.128 729.623 382.524 726.976 392.716 722.152Z" fill="#C3ECFE"/>
        <path d="M431.377 744.811C415.397 739.988 396.794 740.878 380.022 747.285C375.916 748.844 371.513 751.119 369.88 754.904C369.435 755.943 369.237 757.106 369.633 758.071C370.3 759.629 372.279 760.223 374.11 760.495C383.807 761.93 394.197 758.59 403.696 754.533C413.195 750.476 420.765 748.547 431.377 744.836" fill="#C3ECFE"/>
        <path d="M262.42 676.958C257.175 659.246 245.202 643.216 229.395 632.678C225.511 630.105 220.836 627.755 216.458 628.918C215.245 629.239 214.083 629.882 213.464 630.921C212.475 632.604 213.118 634.78 213.984 636.611C218.511 646.308 227.738 653.284 237.089 658.949C246.439 664.638 252.723 670.056 262.444 676.958" fill="#C3ECFE"/>
        <path d="M298.415 684.304C297.55 665.85 289.757 647.42 276.919 633.419C273.777 629.981 269.77 626.592 265.243 626.691C264.006 626.715 262.719 627.062 261.878 627.903C260.518 629.288 260.617 631.564 261.013 633.568C263.091 644.081 270.388 653.036 278.131 660.779C285.849 668.521 290.648 675.275 298.44 684.304" fill="#C3ECFE"/>
        <path d="M343.559 699.469C346.404 681.212 342.446 661.596 332.675 645.319C330.275 641.336 327.034 637.205 322.582 636.388C321.345 636.166 320.034 636.24 319.02 636.908C317.412 637.996 317.065 640.247 317.041 642.276C316.966 652.987 322.334 663.228 328.346 672.356C334.357 681.485 337.721 689.079 343.534 699.469" fill="#C3ECFE"/>
        <path d="M399.27 724.303C397.983 705.874 389.795 687.618 376.635 673.913C373.419 670.549 369.337 667.234 364.811 667.432C363.574 667.482 362.287 667.853 361.471 668.719C360.135 670.129 360.308 672.404 360.729 674.383C363.054 684.847 370.55 693.629 378.441 701.199C386.332 708.768 391.28 715.423 399.27 724.279" fill="#C3ECFE"/>
        <path d="M435.978 748.426C443.127 731.406 444.018 711.419 438.452 693.237C437.092 688.784 434.939 683.985 430.808 682.13C429.67 681.61 428.384 681.363 427.246 681.783C425.415 682.451 424.525 684.554 424.03 686.508C421.383 696.898 424.129 708.129 427.766 718.444C431.402 728.76 432.837 736.923 435.978 748.426Z" fill="#C3ECFE"/>
        <path d="M587.993 725.838C569.415 708.448 543.144 699.592 517.813 702.14C500.67 703.871 481.968 713.024 478.183 729.846C476.378 737.861 477.021 748.473 469.426 751.639C462.005 754.731 454.831 747.088 447.212 744.515C434.522 740.26 420.051 754.756 424.33 767.422C426.284 773.185 431.158 778.207 430.737 784.268C430.193 792.53 419.976 796.834 411.788 795.548C403.6 794.262 396.377 789.487 388.362 787.434C380.347 785.381 369.933 787.434 367.113 795.227C364.59 802.202 368.943 811.578 363.452 816.6C361.102 818.752 357.713 819.197 354.546 819.494C285.059 826.099 208.522 838.566 216.289 850.91C218.417 854.275 223.859 853.211 227.841 853.137C375.771 850.811 510.144 848.61 657.999 853.137" fill="#C3ECFE"/>
        <path d="M1003.95 493.482L1047.78 665.431L1039.45 667.558L985.199 498.256" fill="#88D2FF"/>
        <path d="M963.354 497.392C940.967 503.106 917.12 485.741 910.218 458.678C903.316 431.615 915.932 404.973 938.32 399.259C960.707 393.545 984.554 410.91 991.455 437.973C998.357 465.035 985.741 491.678 963.354 497.392ZM942.154 414.299C928.054 417.886 920.484 436.093 925.258 454.844C930.033 473.595 945.395 485.939 959.495 482.352C973.595 478.765 981.165 460.558 976.39 441.807C971.616 423.056 956.254 410.712 942.154 414.299Z" fill="#9BDFFF"/>
        <path d="M986.411 449.626C987.129 452.47 999.745 501.92 999.745 501.92C1000.41 504.542 998.829 507.214 996.207 507.907C993.585 508.575 990.913 506.991 990.221 504.369L988.712 498.457C988.712 498.457 981.711 483.516 962.342 489.675C962.342 489.675 985.422 486.781 986.213 486.855C987.005 486.905 985.669 446.805 986.387 449.65L986.411 449.626Z" fill="#C0EDFF"/>
        <path d="M998.11 515.399C991.332 517.131 984.43 513.025 982.699 506.247C982.699 506.247 981.907 502.14 980.299 499.864C977.801 496.302 972.68 494.966 963.329 497.341L960.955 484.131C965.877 482.548 969.415 480.173 973.373 480.47C975.5 480.223 977.257 480 978.716 479.827C978.716 475.77 978.617 470.427 978.568 466.345C978.518 461.991 984.158 457.093 984.134 453.977C984.134 448.361 978.37 442.721 985.321 441.781L992.173 440.866L1007.29 499.988C1009.02 506.766 1004.91 513.668 998.135 515.399H998.11Z" fill="#9BDFFF"/>
        <path d="M1010.41 491.927L1010.53 669.393L1019.14 669.368L1029.75 491.902" fill="#88D2FF"/>
        <path d="M1008.72 435.054C1008.72 407.126 1027.5 384.392 1050.61 384.392C1073.71 384.392 1092.53 407.076 1092.56 435.005C1092.56 462.933 1073.78 485.667 1050.68 485.667C1027.57 485.667 1008.75 462.983 1008.72 435.054ZM1024.26 435.054C1024.26 454.423 1036.13 470.156 1050.68 470.156C1065.22 470.156 1077.05 454.374 1077.05 435.029C1077.05 415.66 1065.18 399.927 1050.63 399.927C1036.08 399.927 1024.26 415.709 1024.26 435.054Z" fill="#9BDFFF"/>
        <path d="M1016.52 445.075C1016.52 448.019 1016.57 499.027 1016.57 499.027C1016.57 501.748 1018.77 503.95 1021.49 503.95C1024.21 503.95 1026.41 501.748 1026.41 499.027V492.942C1026.41 492.942 1029.48 476.739 1049.77 477.901C1049.77 477.901 1026.69 480.82 1025.94 481.068C1025.2 481.315 1016.54 442.131 1016.54 445.075H1016.52Z" fill="#C0EDFF"/>
        <path d="M1021.46 511.717C1028.47 511.717 1034.13 506.027 1034.13 499.027C1034.13 499.027 1033.88 494.846 1034.87 492.249C1036.43 488.167 1041.03 485.619 1050.7 485.619L1049.71 472.236C1044.57 471.939 1040.54 470.504 1036.78 471.766C1034.65 472.038 1032.89 472.261 1031.43 472.459C1030.44 468.525 1029.21 463.331 1028.24 459.348C1027.23 455.118 1020.55 451.778 1019.78 448.76C1018.42 443.318 1022.58 436.416 1015.6 437.233L1008.75 438.049V499.076C1008.75 506.077 1014.46 511.742 1021.44 511.742L1021.46 511.717Z" fill="#9BDFFF"/>
        <path d="M1100.77 439.723L1117.39 442.726C1118.98 443.012 1120.01 444.506 1119.73 446.089L1085.05 638.036L1062.73 634.003L1097.4 442.056C1097.69 440.474 1099.18 439.437 1100.77 439.723Z" fill="#88D2FF"/>
        <path d="M1100.77 439.688L1117.39 442.692C1118.98 442.978 1120.01 444.472 1119.73 446.055L1116.39 464.507L1094.07 460.474L1097.4 442.022C1097.69 440.44 1099.18 439.402 1100.77 439.688Z" fill="#FE7D90"/>
        <g opacity="0.5">
            <path d="M1094.19 460.492L1092.98 467.186L1115.3 471.219L1116.51 464.525L1094.19 460.492Z" fill="#599FD2"/>
        </g>
        <path d="M1180.29 484.931L1143.85 470.572L1066.19 667.622L1102.63 681.981L1180.29 484.931Z" fill="#C3ECFE"/>
        <path d="M1165.73 486.629L1177.73 491.354" stroke="#CCF3FF" stroke-width="4.31863" stroke-miterlimit="10"/>
        <path d="M1161.68 496.873L1173.7 501.598" stroke="#CCF3FF" stroke-width="4.31863" stroke-miterlimit="10"/>
        <path d="M1157.64 507.086L1169.66 511.836" stroke="#CCF3FF" stroke-width="4.31863" stroke-miterlimit="10"/>
        <path d="M1147.75 515.005L1165.63 522.055" stroke="#CCF3FF" stroke-width="4.31863" stroke-miterlimit="10"/>
        <path d="M1149.58 527.572L1161.58 532.296" stroke="#CCF3FF" stroke-width="4.31863" stroke-miterlimit="10"/>
        <path d="M1145.55 537.81L1157.54 542.535" stroke="#CCF3FF" stroke-width="4.31863" stroke-miterlimit="10"/>
        <path d="M1141.51 548.029L1153.51 552.778" stroke="#CCF3FF" stroke-width="4.31863" stroke-miterlimit="10"/>
        <path d="M1131.62 555.967L1149.48 562.993" stroke="#CCF3FF" stroke-width="4.31863" stroke-miterlimit="10"/>
        <path d="M1133.45 568.509L1145.45 573.234" stroke="#CCF3FF" stroke-width="4.31863" stroke-miterlimit="10"/>
        <path d="M1129.42 578.752L1141.42 583.477" stroke="#CCF3FF" stroke-width="4.31863" stroke-miterlimit="10"/>
        <path d="M1125.39 588.966L1137.38 593.716" stroke="#CCF3FF" stroke-width="4.31863" stroke-miterlimit="10"/>
        <path d="M1115.46 596.909L1133.35 603.935" stroke="#CCF3FF" stroke-width="4.31863" stroke-miterlimit="10"/>
        <path d="M1117.32 609.451L1129.32 614.176" stroke="#CCF3FF" stroke-width="4.31863" stroke-miterlimit="10"/>
        <path d="M1113.27 619.69L1125.29 624.414" stroke="#CCF3FF" stroke-width="4.31863" stroke-miterlimit="10"/>
        <path d="M1109.23 629.908L1121.25 634.658" stroke="#CCF3FF" stroke-width="4.31863" stroke-miterlimit="10"/>
        <path d="M1099.34 637.851L1117.22 644.877" stroke="#CCF3FF" stroke-width="4.31863" stroke-miterlimit="10"/>
        <path d="M1101.17 650.388L1113.16 655.113" stroke="#CCF3FF" stroke-width="4.31863" stroke-miterlimit="10"/>
        <path d="M1097.14 660.632L1109.13 665.356" stroke="#CCF3FF" stroke-width="4.31863" stroke-miterlimit="10"/>
        <path d="M1093.1 670.85L1105.1 675.6" stroke="#CCF3FF" stroke-width="4.31863" stroke-miterlimit="10"/>
        <path d="M1129.19 861.896H947.572L917.071 587.163C916.675 583.675 919.421 580.607 922.934 580.607H1153.83C1157.34 580.607 1160.09 583.65 1159.69 587.163L1129.19 861.896Z" fill="#9BDFFF"/>
        <path d="M901.46 873.868C1010.85 875.353 1120.24 876.837 1229.63 878.346C1233.29 878.395 1244.86 874.808 1224.93 861.97C1208.03 851.085 1154.67 860.881 1154.67 860.881C1154.67 860.881 1167.09 855.909 1167.04 849.477C1166.99 843.046 1162.12 837.406 1156.25 834.734C1150.42 832.062 1143.74 831.864 1137.33 832.235C1124.27 832.978 1111.33 835.872 1099.21 840.77C1104.36 837.603 1105.94 829.836 1102.43 824.913C1098.91 819.99 1091.07 818.951 1086.4 822.811C1094.58 811.703 1107.27 762.501 1068.31 740.806C1019.48 713.62 982.4 735.982 974.484 752.358C970.477 736.304 952.048 724.133 939.901 721.14C912.22 714.263 894.212 716.316 868.361 728.363C859.233 732.643 846.988 747.213 840.903 755.253C831.379 767.869 829.895 784.641 829.375 800.423C828.979 812.272 828.93 824.146 829.227 835.995" fill="#CCF3FF"/>
        <g opacity="0.4">
            <path d="M965.385 891.354C965.385 897.018 855.204 901.619 719.297 901.619C583.39 901.619 473.21 897.018 473.21 891.354C473.21 885.689 583.39 881.088 719.297 881.088C855.204 881.088 965.385 885.689 965.385 891.354Z" fill="#AFE1F2"/>
            <path d="M723.974 175.059C710.343 175.059 699.286 186.117 699.286 199.747V231.411H748.686C748.686 231.411 748.686 206.278 748.686 199.747C748.686 186.117 737.629 175.059 723.998 175.059H723.974ZM723.974 213.922C716.33 213.922 710.121 207.713 710.121 200.069C710.121 192.425 716.33 186.216 723.974 186.216C731.617 186.216 737.826 192.425 737.826 200.069C737.826 207.713 731.617 213.922 723.974 213.922Z" fill="#E8505B"/>
            <g opacity="0.45">
                <path d="M737.828 200.094C737.828 192.45 731.619 186.241 723.975 186.241C723.257 186.241 722.59 186.34 721.897 186.439C723.975 185.647 724.074 185.103 727.512 185.103C735.156 185.103 741.365 191.312 741.365 198.956C741.365 205.907 737.828 209.643 732.484 211.028C735.453 208.48 737.828 204.299 737.828 200.094ZM706.832 228.27V196.606C706.832 188.022 710.567 180.453 717.222 176.025C706.881 178.968 699.287 188.468 699.287 199.748V231.412H748.687V228.245H706.832V228.27Z" fill="#B03D44"/>
            </g>
            <path d="M927.934 233.067H510.639C497.332 233.067 486.545 243.854 486.545 257.161V867.135C486.545 880.442 497.332 891.229 510.639 891.229H927.934C941.24 891.229 952.028 880.442 952.028 867.135V257.161C952.028 243.854 941.24 233.067 927.934 233.067Z" fill="#3E89CC"/>
            <path d="M925.064 258.895H513.533V865.43H925.064V258.895Z" fill="#C3ECFE"/>
            <path d="M909.254 277.425H529.362V846.904H909.254V277.425Z" fill="white"/>
            <path d="M869.005 243.977V268.715H569.56V243.977C569.56 234.379 577.352 226.612 586.925 226.612H851.64C861.238 226.612 869.005 234.379 869.005 243.977Z" fill="#E8505B"/>
            <path opacity="0.45" d="M869.005 262.53V268.715H569.56V243.977C569.56 234.379 577.352 226.612 586.925 226.612H589.325C584.724 231.015 581.137 237.744 581.137 244.621V262.53H869.005Z" fill="#B03D44"/>
            <g opacity="0.15">
                <path d="M634.694 337.954H696.414" stroke="#0964AF" stroke-width="9.69362" stroke-linecap="round" stroke-linejoin="round"/>
                <path d="M834.893 357.648H881.795" stroke="#0964AF" stroke-width="9.69362" stroke-linecap="round" stroke-linejoin="round"/>
                <path d="M634.694 357.648H814.559" stroke="#0964AF" stroke-width="9.69362" stroke-linecap="round" stroke-linejoin="round"/>
                <path d="M634.694 377.312H881.796" stroke="#0964AF" stroke-width="9.69362" stroke-linecap="round" stroke-linejoin="round"/>
                <path d="M803.257 396.976H881.798" stroke="#0964AF" stroke-width="9.69362" stroke-linecap="round" stroke-linejoin="round"/>
                <path d="M634.694 396.976H783.712" stroke="#0964AF" stroke-width="9.69362" stroke-linecap="round" stroke-linejoin="round"/>
                <path d="M716.651 337.954H881.798" stroke="#0964AF" stroke-width="9.69362" stroke-linecap="round" stroke-linejoin="round"/>
            </g>
            <g opacity="0.15">
                <path d="M634.694 479.377H696.414" stroke="#0964AF" stroke-width="9.69362" stroke-linecap="round" stroke-linejoin="round"/>
                <path d="M834.893 499.071H881.795" stroke="#0964AF" stroke-width="9.69362" stroke-linecap="round" stroke-linejoin="round"/>
                <path d="M634.694 499.071H814.559" stroke="#0964AF" stroke-width="9.69362" stroke-linecap="round" stroke-linejoin="round"/>
                <path d="M634.694 518.735H881.796" stroke="#0964AF" stroke-width="9.69362" stroke-linecap="round" stroke-linejoin="round"/>
                <path d="M803.257 538.399H881.798" stroke="#0964AF" stroke-width="9.69362" stroke-linecap="round" stroke-linejoin="round"/>
                <path d="M634.694 538.399H783.712" stroke="#0964AF" stroke-width="9.69362" stroke-linecap="round" stroke-linejoin="round"/>
                <path d="M716.651 479.377H881.798" stroke="#0964AF" stroke-width="9.69362" stroke-linecap="round" stroke-linejoin="round"/>
            </g>
            <g opacity="0.15">
                <path d="M634.694 615.854H696.414" stroke="#0964AF" stroke-width="9.69362" stroke-linecap="round" stroke-linejoin="round"/>
                <path d="M834.893 635.547H881.795" stroke="#0964AF" stroke-width="9.69362" stroke-linecap="round" stroke-linejoin="round"/>
                <path d="M634.694 635.547H814.559" stroke="#0964AF" stroke-width="9.69362" stroke-linecap="round" stroke-linejoin="round"/>
                <path d="M634.694 655.211H881.796" stroke="#0964AF" stroke-width="9.69362" stroke-linecap="round" stroke-linejoin="round"/>
                <path d="M803.257 674.875H881.798" stroke="#0964AF" stroke-width="9.69362" stroke-linecap="round" stroke-linejoin="round"/>
                <path d="M634.694 674.875H783.712" stroke="#0964AF" stroke-width="9.69362" stroke-linecap="round" stroke-linejoin="round"/>
                <path d="M716.651 615.854H881.798" stroke="#0964AF" stroke-width="9.69362" stroke-linecap="round" stroke-linejoin="round"/>
            </g>
            <g opacity="0.15">
                <path d="M634.694 754.803H696.414" stroke="#0964AF" stroke-width="9.69362" stroke-linecap="round" stroke-linejoin="round"/>
                <path d="M834.893 774.467H881.795" stroke="#0964AF" stroke-width="9.69362" stroke-linecap="round" stroke-linejoin="round"/>
                <path d="M634.694 774.467H814.559" stroke="#0964AF" stroke-width="9.69362" stroke-linecap="round" stroke-linejoin="round"/>
                <path d="M634.694 794.161H881.796" stroke="#0964AF" stroke-width="9.69362" stroke-linecap="round" stroke-linejoin="round"/>
                <path d="M803.257 813.825H881.798" stroke="#0964AF" stroke-width="9.69362" stroke-linecap="round" stroke-linejoin="round"/>
                <path d="M634.694 813.825H783.712" stroke="#0964AF" stroke-width="9.69362" stroke-linecap="round" stroke-linejoin="round"/>
                <path d="M716.651 754.803H881.798" stroke="#0964AF" stroke-width="9.69362" stroke-linecap="round" stroke-linejoin="round"/>
            </g>
            <path d="M608.672 332.017H562.488C559.619 332.017 557.293 334.343 557.293 337.212V383.397C557.293 386.266 559.619 388.592 562.488 388.592H608.672C611.541 388.592 613.867 386.266 613.867 383.397V337.212C613.867 334.343 611.541 332.017 608.672 332.017Z" stroke="#2396B5" stroke-width="3.60404" stroke-miterlimit="10"/>
            <path d="M608.672 472.996H562.488C559.619 472.996 557.293 475.322 557.293 478.191V524.375C557.293 527.244 559.619 529.57 562.488 529.57H608.672C611.541 529.57 613.867 527.244 613.867 524.375V478.191C613.867 475.322 611.541 472.996 608.672 472.996Z" stroke="#2396B5" stroke-width="3.60404" stroke-miterlimit="10"/>
            <path d="M608.672 613.951H562.488C559.619 613.951 557.293 616.277 557.293 619.146V665.331C557.293 668.2 559.619 670.525 562.488 670.525H608.672C611.541 670.525 613.867 668.2 613.867 665.331V619.146C613.867 616.277 611.541 613.951 608.672 613.951Z" stroke="#2396B5" stroke-width="3.60404" stroke-miterlimit="10"/>
            <path d="M608.672 754.93H562.488C559.619 754.93 557.293 757.256 557.293 760.125V806.309C557.293 809.178 559.619 811.504 562.488 811.504H608.672C611.541 811.504 613.867 809.178 613.867 806.309V760.125C613.867 757.256 611.541 754.93 608.672 754.93Z" stroke="#2396B5" stroke-width="3.60404" stroke-miterlimit="10"/>
            <path d="M564.269 350.349L585.593 376.1L626.607 311.363" stroke="#007CB4" stroke-width="10.781" stroke-linecap="round" stroke-linejoin="round"/>
            <path d="M564.269 490.139L585.593 515.891L626.607 451.153" stroke="#007CB4" stroke-width="10.781" stroke-linecap="round" stroke-linejoin="round"/>
        </g>
        <g opacity="0.4">
            <path d="M468.808 892.345C468.808 895.115 437.664 897.366 399.271 897.366C360.879 897.366 329.734 895.115 329.734 892.345C329.734 889.574 360.879 887.323 399.271 887.323C437.664 887.323 468.808 889.574 468.808 892.345Z" fill="#AFE1F2"/>
            <path d="M411.093 604.919C411.39 606.329 412.132 607.541 413.121 608.432C414.21 609.471 415.694 610.139 417.253 610.312C421.359 610.732 427.692 611.598 434.371 612.514C445.107 613.948 456.808 615.433 461.73 615.16C462.843 615.111 467.37 615.259 470.438 613.948C470.537 613.948 470.611 613.899 470.71 613.849C470.71 613.849 470.726 613.833 470.759 613.8C471.502 613.157 471.526 611.425 471.304 609.693C471.106 607.813 470.611 605.909 470.562 605.414C470.067 600.318 465.837 598.611 463.783 598.092C463.116 597.918 462.67 597.869 462.67 597.869C462.423 597.795 462.176 597.721 461.903 597.622C451.835 594.43 440.431 593.639 433.109 592.402C429.572 591.808 425.911 591.981 422.497 592.946C420.172 593.589 417.945 594.628 415.941 596.014C412.775 598.215 410.301 601.184 411.093 604.894V604.919Z" fill="white"/>
            <path d="M460.442 609.718C460.714 610.46 461.06 611.078 461.481 611.623C461.679 611.87 461.877 612.093 462.074 612.29C464.697 614.814 468.754 614.344 469.52 614.245C469.817 614.146 470.114 614.047 470.436 613.923C470.535 613.874 470.634 613.824 470.757 613.799C477.214 611.078 490.844 601.06 500.195 593.935C500.269 593.935 500.294 593.886 500.294 593.886C505.86 589.582 509.892 586.366 509.892 586.366L509.075 585.079L505.761 580.231C505.761 580.231 485.006 590.027 475.21 593.465C470.906 594.974 466.7 596.335 463.806 598.116C463.435 598.339 463.089 598.561 462.742 598.809C462.742 598.809 458.339 603.855 460.442 609.718Z" fill="#35AAD3"/>
            <path d="M434.396 612.488C445.132 613.923 456.833 615.407 461.756 615.135C462.869 615.086 467.396 615.234 470.463 613.923C470.562 613.923 470.636 613.874 470.735 613.824C470.735 613.824 470.752 613.808 470.785 613.775C477.241 611.054 490.872 601.035 500.222 593.911C498.886 594.727 481.199 604.993 471.329 609.693C468.855 610.88 466.852 611.697 465.763 611.944C464.798 612.142 463.537 612.266 462.102 612.29C461.929 612.29 461.731 612.29 461.558 612.29C452.454 612.241 444.143 607.318 439.319 599.6C436.944 595.815 434.965 593.614 434.965 593.614C434.965 593.614 434.619 604.647 434.421 612.488H434.396Z" fill="#2496B5"/>
            <path d="M465.962 596.953C465.962 596.953 464.355 598.116 459.63 596.953C454.905 595.79 459.877 601.554 459.877 601.554L467.298 601.084L467.917 599.179L465.938 596.953H465.962Z" fill="white"/>
            <path d="M390.835 651.055C392.814 656.225 393.309 661.865 392.097 667.282C389.698 678.043 392.419 678.76 392.419 678.76C392.419 678.76 406.989 688.012 419.11 691.797C427.793 694.493 435.19 694.048 434.992 684.45V684.326C434.992 683.733 434.967 683.188 434.942 682.644C434.522 661.098 439.024 659.985 440.137 635.866C441.275 611.104 441.028 596.434 433.112 592.452C424.478 588.098 412.58 585.105 395.733 589.087C383.068 592.081 378.887 595.42 379.011 604.796C379.036 607.913 379.555 611.697 380.372 616.323C382.474 628.123 387.446 642.273 390.835 651.079V651.055Z" fill="#35AAD3"/>
            <path d="M390.837 651.054C392.816 656.224 393.311 661.865 392.099 667.282C389.7 678.043 392.421 678.76 392.421 678.76C392.421 678.76 406.991 688.012 419.112 691.797L430.442 690.733L434.969 687.171V684.326C434.969 683.732 434.969 683.188 434.969 682.644C432.371 682.891 426.484 683.188 417.875 682.199C411.196 681.432 405.136 679.527 401.103 677.993C398.16 676.88 396.428 673.837 396.972 670.721C397.714 666.49 398.58 660.405 398.531 655.68C398.506 650.931 396.304 642.916 394.499 637.127C393.138 632.675 392.668 628.049 392.99 623.398C393.559 615.383 392.99 607.764 392.99 607.764L384.01 602.891L379.013 604.746C379.038 607.863 379.557 611.648 380.374 616.274C382.476 628.073 387.448 642.223 390.837 651.03V651.054Z" fill="#2496B5"/>
            <path d="M431.382 562.838C429.724 563.506 430.417 569.122 430.095 570.927C429.799 572.758 428.487 579.783 424.777 580.847C421.091 581.911 418.79 582.208 418.79 582.826C418.79 583.098 418.865 584.385 418.964 585.671C419.013 586.215 419.063 586.759 419.087 587.205C419.087 587.328 419.087 587.452 419.087 587.551C419.112 587.65 419.112 587.749 419.112 587.848C419.162 588.293 419.063 590.124 418.79 590.47L416.366 592.078C416.045 592.449 415.599 592.696 415.105 592.721L412.557 592.919C412.359 592.919 412.186 592.919 412.012 592.869L410.578 592.449C410.38 591.583 410.231 590.915 410.207 590.891C410.157 590.816 405.68 587.897 403.082 586.19C402.934 583.519 402.711 580.427 402.513 579.635C402.34 578.967 400.435 575.281 398.456 570.903C398.283 570.532 398.11 570.161 397.962 569.79C397.516 568.8 397.096 567.786 396.675 566.772C396.601 566.648 396.552 566.499 396.502 566.376C395.092 562.789 393.979 559.251 393.954 556.877C393.954 550.395 394.177 543.617 398.184 540.278C402.142 536.963 427.3 525.04 428.141 544.582C428.141 544.706 428.141 544.805 428.191 544.928C428.562 546.264 431.283 556.233 432.544 558.064C433.88 560.018 433.014 562.195 431.357 562.838H431.382Z" fill="#FEAF84"/>
            <path d="M418.813 590.47L418.566 591.683C418.393 592.548 417.626 593.142 416.76 593.117L412.456 592.944C412.456 592.944 412.184 592.919 412.035 592.87L410.601 592.449C410.403 591.584 410.254 590.916 410.23 590.891C410.18 590.817 405.703 587.898 403.105 586.191C402.957 583.519 402.734 580.427 402.536 579.635C402.363 578.968 400.458 575.282 398.479 570.903C398.306 570.532 398.133 570.161 397.985 569.79C397.539 568.8 397.119 567.786 396.698 566.772C396.599 566.5 396.55 566.228 396.575 565.931L396.748 564.001C396.822 563.16 397.465 562.468 398.306 562.394C400.434 562.146 404.243 561.726 404.441 561.75C404.713 561.775 407.038 566.228 407.038 566.475C407.038 566.673 405.975 569.938 405.678 570.829C405.628 570.977 405.604 571.101 405.579 571.274C405.579 572.264 405.406 576.321 405.529 580.056C405.604 582.752 407.088 585.152 409.364 586.389C409.364 586.389 409.487 586.463 409.685 586.562C410.848 587.156 414.855 589.209 418.813 590.47Z" fill="#F29D77"/>
            <path d="M432.444 564.619C437.837 569.517 431.999 580.13 430.268 581.639C428.536 583.148 416.167 586.908 409.068 580.08C407.707 578.819 406.742 577.31 406.025 575.751C406.025 575.751 406.025 575.726 406.025 575.702C405.827 575.256 404.244 571.422 404.368 565.98L402.339 566.475C402.339 566.475 401.968 572.783 402.685 576.691C402.685 578.225 400.805 579.017 399.717 577.953C396.501 574.811 391.628 567.909 389.97 554.057C387.422 532.758 408.771 531.298 413.57 531.793C417.008 532.164 422.945 531.966 424.529 531.051C436.526 524.124 435.413 536.468 433.706 541.119C433.137 542.702 431.851 544.706 431.579 545.423C431.307 546.141 431.876 549.307 431.876 550.742C431.876 552.176 430.589 552.943 430.589 552.943C430.589 552.943 429.377 548.961 429.229 548.392C429.105 547.971 428.61 546.19 428.388 545.398C428.313 545.151 428.115 544.953 427.893 544.854C427.151 544.582 426.409 544.434 426.409 544.434C425.617 544.211 422.525 544.038 420.101 543.914C418.517 543.84 417.107 545.052 417.058 546.66C416.761 553.314 413.347 554.527 411.789 554.724C411.344 554.774 410.997 555.12 410.948 555.566C409.909 563.679 413.026 568.231 414.361 568.454C415.747 568.701 419.977 565.065 419.977 565.065C419.977 565.065 427.101 559.721 432.469 564.619H432.444Z" fill="#0B0B3A"/>
            <path d="M404.986 560.536C404.986 560.536 404.664 556.9 401.869 557.395C398.554 557.988 396.921 565.731 402.017 567.611C403.13 568.032 404.318 567.166 404.342 565.979C404.367 564.47 404.516 562.367 404.986 560.536Z" fill="#F29D77"/>
            <path d="M421.41 598.016C421.41 598.016 434.546 641.083 431.923 661.714L427.075 670.521L421.781 660.923C421.781 660.923 426.085 619.685 417.848 598.758L421.41 598.04V598.016Z" fill="#16405A"/>
            <path d="M422.326 594.354L422.252 594.923C422.128 595.987 421.831 597.025 421.411 598.015L417.849 598.732L414.756 596.432L418.319 592.301L418.863 592.449C420.124 592.771 421.312 593.414 422.277 594.304L422.326 594.354Z" fill="#103649"/>
            <path d="M403.005 584.483C403.005 584.483 402.115 585.547 400.408 588.095C400.408 588.095 402.881 589.035 404.91 590.272C406.765 591.41 415.671 597.693 415.671 597.693L418.293 592.3C418.293 592.3 408.027 585.893 402.98 584.458L403.005 584.483Z" fill="#2496B5"/>
            <path d="M418.318 592.302C418.318 592.302 421.434 593.365 422.399 595.691C422.399 595.691 423.908 591.065 422.647 588.542C422.647 588.542 421.731 586.142 418.936 585.004L418.318 592.302Z" fill="#2496B5"/>
            <path d="M432.198 877.921C432.198 877.921 433.435 881.088 433.287 883.166C433.138 885.243 426.509 885.392 425.742 884.328C424.975 883.24 424.579 873.691 424.579 873.691" fill="#FEAF84"/>
            <path d="M423.96 886.158C423.96 888.335 424.554 891.872 424.554 891.872H432.198L432.569 890.586C432.569 890.586 435.043 891.872 436.997 891.872H443.453C448.178 891.872 450.85 891.278 450.974 890.437C451.468 886.974 445.828 887.123 444.369 887.123C440.163 887.123 435.587 885.144 434.597 883.016C433.88 881.458 434.202 881.062 433.311 881.359C433.311 881.359 432.52 881.532 432 882.497C431.184 883.981 429.675 884.97 428.017 884.673C427.077 884.5 426.113 884.154 425.445 883.437C425.445 883.437 423.96 884.03 423.96 886.182V886.158Z" fill="#3A3A3A"/>
            <path d="M357.838 870.721C357.838 870.721 356.428 876.312 355.513 878.192C354.597 880.072 348.388 877.746 348.067 876.46C347.745 875.174 350.936 866.145 350.936 866.145" fill="#FEAF84"/>
            <path d="M345.767 877.525C344.975 879.554 343.763 883.438 343.763 883.438L349.551 886.901L350.689 886.035C350.689 886.035 351.976 888.113 353.732 889.226C355.043 890.043 357.962 891.255 359.471 891.601C364.765 892.813 368.846 892.219 369.267 891.502C371.023 888.459 363.998 886.777 362.637 886.258C358.729 884.699 356.923 880.89 356.799 878.54C356.7 876.833 357.146 876.585 356.23 876.536C356.23 876.536 355.439 876.412 354.598 877.105C353.311 878.169 351.53 878.54 350.096 877.649C349.279 877.154 348.537 876.462 348.166 875.547C348.166 875.547 346.583 875.547 345.767 877.55V877.525Z" fill="#3A3A3A"/>
            <path d="M384.699 721.68C384.699 721.68 374.309 696.819 392.417 678.761C392.417 678.761 407.878 685.687 420.247 686.504C429.993 687.172 434.941 686.157 434.941 686.157C434.941 686.157 438.725 705.7 437.513 734.074L384.674 721.68H384.699Z" fill="#243A6C"/>
            <path d="M423.659 880.32C423.98 880.32 424.277 880.32 424.574 880.32C431.03 880.394 434.692 879.627 434.692 879.627V877.772C434.345 849.299 437.784 802.768 438.452 788.074C438.501 787.035 438.452 786.095 438.353 785.254C437.24 774.494 426.108 775.904 421.432 785.799C420.344 788.099 419.453 790.647 418.785 793.418C417.969 796.733 417.4 800.344 417.054 804.154C414.877 828.718 421.729 861.965 423.634 880.32H423.659Z" fill="#243A6C"/>
            <path d="M404.368 733.136C404.417 733.433 404.491 733.73 404.541 734.051C407.015 747.014 414.98 782.042 418.79 793.396C419.359 795.004 421.263 796.34 423.688 797.008C429.278 798.542 437.639 796.439 438.357 785.282C438.456 784.046 438.431 782.71 438.307 781.25C437.837 775.437 437.417 750.576 437.516 734.051C437.565 724.676 435.314 718.986 435.166 717.255C434.795 712.431 433.904 705.381 431.356 704.466C418.616 700.062 401.003 714.979 404.343 733.111L404.368 733.136Z" fill="#243A6C"/>
            <path d="M417.079 804.179C414.903 828.743 421.755 861.99 423.66 880.345C423.981 880.345 424.278 880.345 424.575 880.345C424.575 880.345 422.992 851.278 420.394 831.142C418.391 815.582 421.953 802.274 423.709 797.005C424.229 795.446 424.575 794.58 424.575 794.58L421.433 785.799C417.945 774.395 417.846 747.753 417.846 747.753C426.356 729.002 427.543 705.378 427.543 705.378L420.271 706.392L407.234 722.001L404.538 734.023C407.011 746.986 414.977 782.014 418.786 793.368C417.97 796.708 417.401 800.295 417.055 804.129L417.079 804.179Z" fill="#1C3059"/>
            <path d="M416.239 784.711C416.239 784.711 418.416 794.557 417.056 804.18C415.695 813.802 421.657 795.719 421.657 795.719L418.491 789.189L416.215 784.711H416.239Z" fill="#1C3059"/>
            <path d="M378.985 785.108C387.618 776.994 399.591 780.828 394 793.419C388.014 806.877 369.485 844.23 359.442 870.872L358.749 872.604C358.749 872.604 354.717 871.911 348.236 869.19C353.01 851.899 356.498 822.115 366.418 801.36C369.609 794.681 374.507 789.313 378.985 785.108Z" fill="#243A6C"/>
            <path d="M427.543 705.429C429.225 685.417 404.265 698.701 392.292 705.305C387.246 708.076 385.415 713.667 384.747 718.886C384.079 724.131 377.598 778.083 376.312 787.928C373.393 810.118 392.762 797.996 394.593 791.837C399.219 776.302 426.652 716.338 427.543 705.429Z" fill="#243A6C"/>
            <path d="M378.018 774.174C378.018 774.174 377.227 784.787 368.297 797.897C368.297 797.897 382.892 791.169 383.609 790.155C384.326 789.165 386.874 778.874 386.577 777.786C386.305 776.697 378.018 774.174 378.018 774.174Z" fill="#243A6C"/>
            <path d="M575.03 476.112L558.06 535.729L346.704 763.411L344.75 765.514L324.416 786.838L285.454 750.647L307.1 727.913L311.305 723.362L519.099 499.538L575.03 476.112Z" fill="#007CB4"/>
            <path d="M296.524 738.728L285.436 750.678L324.422 786.855L335.51 774.905L296.524 738.728Z" fill="#ABD8EB"/>
            <path d="M307.677 726.74L296.578 738.68L335.532 774.891L346.631 762.951L307.677 726.74Z" fill="#ABD8EB"/>
            <path d="M519.097 499.538L558.058 535.729L575.028 476.112L519.097 499.538Z" fill="#B3E7FF"/>
            <path d="M555.015 484.498L569.164 496.718L575.027 476.112L555.015 484.498Z" fill="#007CB4"/>
            <g style="mix-blend-mode:multiply">
                <path d="M575.027 476.112L550.043 528.308L313.628 776.794L324.413 786.838L558.058 535.729L575.027 476.112Z" fill="#007CB4"/>
            </g>
            <g style="mix-blend-mode:multiply" opacity="0.67">
                <path d="M408.228 689.719L408.104 691.129L406.15 693.232C405.111 692.886 403.825 692.292 403.132 691.352C401.821 689.571 401.203 688.186 401.203 688.186L400.312 689.225C400.312 689.225 378.197 672.032 368.698 655.409L372.705 651.08L376.341 652.514C376.341 652.514 386.979 663.226 387.671 664.215C388.364 665.229 395.884 676.584 395.884 676.584L408.228 689.719Z" fill="#BEC4CC"/>
            </g>
            <path d="M398.204 685.22L405.155 679.432C405.155 679.432 407.209 682.821 408.718 683.291C409.064 683.389 410.177 683.068 410.548 683.068C412.527 683.068 413.739 683.686 416.164 684.8C417.796 685.542 419.973 686.234 420.047 686.902C420.146 687.57 418.984 688.584 417.846 688.51C417.697 688.51 417.499 688.461 417.277 688.386C417.277 688.584 417.252 688.782 417.153 689.079C416.683 690.539 409.856 700.087 403.053 689.698C401.519 687.347 398.18 685.195 398.18 685.195L398.204 685.22Z" fill="#FFBC9F"/>
            <path d="M394.693 617.363C392.393 624.438 389.944 635.619 385.318 645.094C385.219 645.316 385.12 645.514 385.021 645.687C384.996 645.737 384.971 645.762 384.947 645.811C384.947 645.811 384.848 646.232 384.6 646.85C383.759 648.804 381.483 652.787 376.338 652.515C376.091 652.515 375.423 652.54 374.582 652.589C373.567 652.639 372.306 652.663 371.143 652.589C369.708 652.49 368.447 652.218 368.026 651.501C368.002 651.501 368.002 651.476 368.002 651.476C367.952 651.328 367.878 651.08 367.828 650.759C367.828 650.635 367.754 650.511 367.754 650.363C367.705 650.239 367.705 650.091 367.68 649.942C367.631 649.546 367.606 649.151 367.581 648.755C367.581 648.557 367.581 648.359 367.581 648.161C367.532 645.638 367.977 643.164 368.051 642.373C368.793 634.407 376.66 609.472 379.331 599.082C379.727 597.549 380.593 596.188 381.78 595.248C382.819 594.382 384.106 593.838 385.516 593.764C385.516 593.764 385.532 593.756 385.565 593.739C385.763 593.739 385.961 593.739 386.159 593.739C389.647 593.838 392.046 596.584 393.654 599.874C394.718 602.051 395.435 604.401 395.707 606.776C396.177 610.288 395.806 613.949 394.718 617.363H394.693Z" fill="#35AAD3"/>
            <path d="M406.665 682.719L402.312 686.652L401.174 687.666C401.174 687.666 392.343 679.997 385.466 673.516C379.108 667.48 372.627 660.752 368.595 652.687C368.397 652.316 368.199 651.896 368.026 651.525V651.475C367.976 651.327 367.902 651.079 367.853 650.758C367.853 650.634 367.778 650.51 367.778 650.362C367.729 650.238 367.729 650.09 367.704 649.942C367.655 649.546 367.63 649.15 367.605 648.754C367.605 648.556 367.605 648.358 367.605 648.16C367.605 646.651 368.001 644.945 369.213 643.51C369.312 643.386 369.436 643.262 369.535 643.139C370.005 642.669 370.574 642.248 371.266 641.877C371.687 641.654 372.132 641.457 372.553 641.333C377.649 639.552 382.398 642.669 382.398 642.669C382.67 642.941 382.967 643.238 383.239 643.559C383.833 644.202 384.451 644.92 385.07 645.687C386.777 647.864 388.484 650.51 389.819 653.627C394.025 663.349 406.715 682.719 406.715 682.719H406.665Z" fill="#35AAD3"/>
            <path d="M510.343 587.11C510.343 587.11 520.956 579.738 521.426 574.073C521.945 567.839 517.567 564.846 514.697 568.285C510.17 573.702 511.382 583.473 511.382 583.473L510.368 587.11H510.343Z" fill="#FFBC9F"/>
            <path d="M402.316 686.653L401.178 687.667C401.178 687.667 392.347 679.998 385.47 673.517C379.113 667.481 372.632 660.753 368.599 652.688C368.401 652.317 368.204 651.897 368.03 651.526V651.476C367.981 651.328 367.907 651.08 367.857 650.759C367.857 650.635 367.783 650.511 367.783 650.363C367.734 650.239 367.734 650.091 367.709 649.943C367.659 649.547 367.635 649.151 367.61 648.755C367.61 648.557 367.61 648.359 367.61 648.161C367.56 645.638 368.006 643.165 368.08 642.373C368.822 634.407 376.688 609.472 379.36 599.083C379.756 597.549 380.622 596.188 381.809 595.248C382.848 594.382 384.134 593.838 385.544 593.764C385.544 593.764 385.561 593.756 385.594 593.739C385.792 593.739 385.99 593.739 386.188 593.739C384.53 596.411 382.18 601.804 379.533 612.614C376.021 627.036 373.547 635.743 372.557 641.334C372.063 643.907 371.914 645.836 372.112 647.345C372.236 648.285 373.151 650.14 374.635 652.589C380.696 662.633 396.083 682.348 402.366 686.653H402.316Z" fill="#2496B5"/>
        </g>
    </g>
    <defs>
        <linearGradient id="paint0_linear_6_5945" x1="720" y1="0" x2="720" y2="984" gradientUnits="userSpaceOnUse">
            <stop stop-color="#007CB4"/>
            <stop offset="1" stop-color="#00BAF2"/>
        </linearGradient>
    </defs>
</svg>
    