<svg width="412" height="412" viewBox="0 0 412 412" 
    xmlns="http://www.w3.org/2000/svg">
    <path d="M199.734 0C261.841 0.135971 311.44 18.7641 351.995 60.2981C445.743 156.325 425.255 314.178 310.517 382.195C211.449 440.914 83.8512 407.454 26.8235 307.798C-24.6631 217.816 0.0713326 99.6043 83.008 38.7205C119.738 11.7458 160.875 0.209187 199.734 0ZM240.188 158.501C240.981 179.074 244.153 198.225 255.707 214.741C271.478 237.291 294.837 236.82 310.045 213.81C319.742 199.135 323.888 182.505 324.45 165.069C325.273 139.716 321.418 115.503 303.259 96.4874C290.781 83.4237 274.329 83.5911 261.71 96.6025C244.967 113.86 241.363 136.097 240.198 158.511L240.188 158.501ZM216.307 344.374C246.201 342.418 275.905 325.557 299.595 296.564C304.142 291 308.599 285.111 311.862 278.689C315.807 270.918 312.374 264.193 303.38 259.423C294.194 254.549 288.924 255.867 284.046 263.711C280.823 268.889 277.38 273.972 273.566 278.689C237.699 323.005 176.334 324.062 139.293 280.959C134.595 275.489 130.6 269.37 126.203 263.617C121.184 257.059 114.94 256.317 108.586 261.4C98.3466 269.6 96.8609 278.49 105.705 289.881C132.276 324.135 165.844 344.562 216.307 344.363V344.374ZM139.524 183.603C153.487 183.603 167.45 183.844 181.404 183.53C193.61 183.248 201.932 174.159 201.641 162.193C201.36 150.667 192.998 142.634 180.972 142.613C153.216 142.55 125.45 142.373 97.6941 142.812C93.0765 142.885 87.8766 144.862 84.062 147.634C77.4468 152.434 75.5897 161.743 78.2298 169.818C80.91 178.008 88.1477 183.394 97.6439 183.551C111.597 183.781 125.561 183.614 139.524 183.603Z" fill="#007CB4" fill-opacity=".4"/>
</svg>
