<svg viewBox="0 0 104 105" fill="#fff" xmlns="http://www.w3.org/2000/svg">
    <g filter="url(#filter0_d_968_1893)">
    <rect x="14.7422" y="12.4346" width="72.404" height="72.404" rx="36.202" fill="#fff"  shape-rendering="crispEdges"/>
    <path d="M50.9434 33.6367C47.0134 33.6367 43.8184 36.8317 43.8184 40.7617C43.8184 44.6167 46.8334 47.7367 50.7634 47.8717C50.8834 47.8567 51.0034 47.8567 51.0934 47.8717C51.1234 47.8717 51.1384 47.8717 51.1684 47.8717C51.1834 47.8717 51.1834 47.8717 51.1984 47.8717C55.0384 47.7367 58.0534 44.6167 58.0684 40.7617C58.0684 36.8317 54.8734 33.6367 50.9434 33.6367Z" fill="#007CB4"/>
    <path d="M58.5648 51.863C54.3798 49.073 47.5548 49.073 43.3398 51.863C41.4348 53.138 40.3848 54.863 40.3848 56.708C40.3848 58.553 41.4348 60.263 43.3248 61.523C45.4248 62.933 48.1848 63.638 50.9448 63.638C53.7048 63.638 56.4648 62.933 58.5648 61.523C60.4548 60.248 61.5048 58.538 61.5048 56.678C61.4898 54.833 60.4548 53.123 58.5648 51.863ZM53.9448 57.833H52.0698V59.708C52.0698 60.323 51.5598 60.833 50.9448 60.833C50.3298 60.833 49.8198 60.323 49.8198 59.708V57.833H47.9448C47.3298 57.833 46.8198 57.323 46.8198 56.708C46.8198 56.093 47.3298 55.583 47.9448 55.583H49.8198V53.708C49.8198 53.093 50.3298 52.583 50.9448 52.583C51.5598 52.583 52.0698 53.093 52.0698 53.708V55.583H53.9448C54.5598 55.583 55.0698 56.093 55.0698 56.708C55.0698 57.323 54.5598 57.833 53.9448 57.833Z" fill="#007CB4"/>
    </g>
    <defs>
    <filter id="filter0_d_968_1893" x="0.519965" y="0.798206" width="103.435" height="103.435" filterUnits="userSpaceOnUse" color-interpolation-filters="sRGB">
    <feFlood flood-opacity="0" result="BackgroundImageFix"/>
    <feColorMatrix in="SourceAlpha" type="matrix" values="0 0 0 0 0 0 0 0 0 0 0 0 0 0 0 0 0 0 127 0" result="hardAlpha"/>
    <feOffset dx="1.29293" dy="3.87879"/>
    <feGaussianBlur stdDeviation="7.75758"/>
    <feComposite in2="hardAlpha" operator="out"/>
    <feColorMatrix type="matrix" values="0 0 0 0 0.0208531 0 0 0 0 0.263507 0 0 0 0 0.379147 0 0 0 0.05 0"/>
    <feBlend mode="normal" in2="BackgroundImageFix" result="effect1_dropShadow_968_1893"/>
    <feBlend mode="normal" in="SourceGraphic" in2="effect1_dropShadow_968_1893" result="shape"/>
    </filter>
    </defs>
    </svg>
    