<svg width="104" height="104" viewBox="0 0 104 104" fill="none" xmlns="http://www.w3.org/2000/svg">
    <g filter="url(#filter0_d_968_1915)">
    <rect x="14.6816" y="12.1924" width="72.404" height="72.404" rx="36.202" fill="#007CB4" fill-opacity="0.12" shape-rendering="crispEdges"/>
    <path d="M46.3848 33.3936C42.4548 33.3936 39.2598 36.5886 39.2598 40.5186C39.2598 44.3736 42.2748 47.4936 46.2048 47.6286C46.3248 47.6136 46.4448 47.6136 46.5348 47.6286C46.5648 47.6286 46.5798 47.6286 46.6098 47.6286C46.6248 47.6286 46.6248 47.6286 46.6398 47.6286C50.4798 47.4936 53.4948 44.3736 53.5098 40.5186C53.5098 36.5886 50.3148 33.3936 46.3848 33.3936Z" fill="#007CB4"/>
    <path d="M54.0042 51.6208C49.8192 48.8308 42.9942 48.8308 38.7792 51.6208C36.8742 52.8958 35.8242 54.6208 35.8242 56.4658C35.8242 58.3108 36.8742 60.0208 38.7642 61.2808C40.8642 62.6908 43.6242 63.3958 46.3842 63.3958C49.1442 63.3958 51.9042 62.6908 54.0042 61.2808C55.8942 60.0058 56.9442 58.2958 56.9442 56.4358C56.9292 54.5908 55.8942 52.8808 54.0042 51.6208Z" fill="#007CB4"/>
    <path d="M62.8688 41.4057C63.1088 44.3157 61.0388 46.8657 58.1738 47.2107C58.1588 47.2107 58.1588 47.2107 58.1438 47.2107H58.0988C58.0088 47.2107 57.9188 47.2107 57.8438 47.2407C56.3888 47.3157 55.0538 46.8507 54.0488 45.9957C55.5938 44.6157 56.4788 42.5457 56.2988 40.2957C56.1938 39.0807 55.7738 37.9707 55.1438 37.0257C55.7138 36.7407 56.3738 36.5607 57.0488 36.5007C59.9888 36.2457 62.6138 38.4357 62.8688 41.4057Z" fill="#007CB4"/>
    <path d="M65.8691 55.2811C65.7491 56.7361 64.8191 57.9961 63.2591 58.8511C61.7591 59.6761 59.8691 60.0661 57.9941 60.0211C59.0741 59.0461 59.7041 57.8311 59.8241 56.5411C59.9741 54.6811 59.0891 52.8961 57.3191 51.4711C56.3141 50.6761 55.1441 50.0461 53.8691 49.5811C57.1841 48.6211 61.3541 49.2661 63.9191 51.3361C65.2991 52.4461 66.0041 53.8411 65.8691 55.2811Z" fill="#007CB4"/>
    </g>
    <defs>
    <filter id="filter0_d_968_1915" x="0.459418" y="0.556019" width="103.435" height="103.435" filterUnits="userSpaceOnUse" color-interpolation-filters="sRGB">
    <feFlood flood-opacity="0" result="BackgroundImageFix"/>
    <feColorMatrix in="SourceAlpha" type="matrix" values="0 0 0 0 0 0 0 0 0 0 0 0 0 0 0 0 0 0 127 0" result="hardAlpha"/>
    <feOffset dx="1.29293" dy="3.87879"/>
    <feGaussianBlur stdDeviation="7.75758"/>
    <feComposite in2="hardAlpha" operator="out"/>
    <feColorMatrix type="matrix" values="0 0 0 0 0.0208531 0 0 0 0 0.263507 0 0 0 0 0.379147 0 0 0 0.05 0"/>
    <feBlend mode="normal" in2="BackgroundImageFix" result="effect1_dropShadow_968_1915"/>
    <feBlend mode="normal" in="SourceGraphic" in2="effect1_dropShadow_968_1915" result="shape"/>
    </filter>
    </defs>
    </svg>
    