<svg width="104" height="104" viewBox="0 0 104 104" fill="none" xmlns="http://www.w3.org/2000/svg">
    <g filter="url(#filter0_d_968_1915)">
    <rect x="14.6816" y="12.1924" width="72.404" height="72.404" rx="36.202" fill="#fff" shape-rendering="crispEdges"/>
    <path d="M54.4084 33.3945H47.3584C45.7984 33.3945 44.5234 34.6545 44.5234 36.2145V37.6245C44.5234 39.1845 45.7834 40.4445 47.3434 40.4445H54.4084C55.9684 40.4445 57.2284 39.1845 57.2284 37.6245V36.2145C57.2434 34.6545 55.9684 33.3945 54.4084 33.3945Z" fill="#007CB4"/>
    <path d="M58.7414 37.6238C58.7414 40.0088 56.7914 41.9588 54.4064 41.9588H47.3564C44.9714 41.9588 43.0214 40.0088 43.0214 37.6238C43.0214 36.7838 42.1214 36.2588 41.3714 36.6488C39.2564 37.7738 37.8164 40.0088 37.8164 42.5738V56.6888C37.8164 60.3788 40.8314 63.3938 44.5214 63.3938H57.2414C60.9314 63.3938 63.9464 60.3788 63.9464 56.6888V42.5738C63.9464 40.0088 62.5064 37.7738 60.3914 36.6488C59.6414 36.2588 58.7414 36.7838 58.7414 37.6238ZM51.4514 55.8188H44.8814C44.2664 55.8188 43.7564 55.3088 43.7564 54.6938C43.7564 54.0788 44.2664 53.5688 44.8814 53.5688H51.4514C52.0664 53.5688 52.5764 54.0788 52.5764 54.6938C52.5764 55.3088 52.0664 55.8188 51.4514 55.8188ZM55.3814 49.8188H44.8814C44.2664 49.8188 43.7564 49.3088 43.7564 48.6938C43.7564 48.0788 44.2664 47.5688 44.8814 47.5688H55.3814C55.9964 47.5688 56.5064 48.0788 56.5064 48.6938C56.5064 49.3088 55.9964 49.8188 55.3814 49.8188Z" fill="#007CB4"/>
    </g>
    <defs>
    <filter id="filter0_d_968_1915" x="0.459418" y="0.556019" width="103.435" height="103.435" filterUnits="userSpaceOnUse" color-interpolation-filters="sRGB">
    <feFlood flood-opacity="0" result="BackgroundImageFix"/>
    <feColorMatrix in="SourceAlpha" type="matrix" values="0 0 0 0 0 0 0 0 0 0 0 0 0 0 0 0 0 0 127 0" result="hardAlpha"/>
    <feOffset dx="1.29293" dy="3.87879"/>
    <feGaussianBlur stdDeviation="7.75758"/>
    <feComposite in2="hardAlpha" operator="out"/>
    <feColorMatrix type="matrix" values="0 0 0 0 0.0208531 0 0 0 0 0.263507 0 0 0 0 0.379147 0 0 0 0.05 0"/>
    <feBlend mode="normal" in2="BackgroundImageFix" result="effect1_dropShadow_968_1915"/>
    <feBlend mode="normal" in="SourceGraphic" in2="effect1_dropShadow_968_1915" result="shape"/>
    </filter>
    </defs>
    </svg>
    