<svg viewBox="0 0 104 105" fill="none" xmlns="http://www.w3.org/2000/svg">
    <g filter="url(#filter0_d_968_1941)">
    <rect x="14.4395" y="12.2529" width="72.404" height="72.404" rx="36.202" fill="#fff" shape-rendering="crispEdges"/>
    <path d="M50.1292 30.4551C55.5672 30.467 59.9101 32.098 63.4611 35.7347C71.6696 44.1428 69.8756 57.9643 59.8293 63.9198C51.1549 69.0612 39.9826 66.1315 34.9893 57.4056C30.4811 49.5269 32.6469 39.1764 39.9087 33.8454C43.1248 31.4835 46.7268 30.4734 50.1292 30.4551ZM53.6713 44.3333C53.7408 46.1347 54.0185 47.8116 55.0302 49.2576C56.411 51.2321 58.4563 51.1909 59.7879 49.1761C60.637 47.8912 61 46.4351 61.0492 44.9084C61.1213 42.6885 60.7838 40.5684 59.1938 38.9034C58.1012 37.7596 56.6606 37.7743 55.5558 38.9135C54.0897 40.4246 53.7742 42.3716 53.6722 44.3342L53.6713 44.3333ZM51.5803 60.6082C54.1978 60.4369 56.7986 58.9607 58.873 56.422C59.2711 55.9348 59.6614 55.4192 59.947 54.8569C60.2925 54.1765 59.9919 53.5876 59.2043 53.17C58.4001 52.7432 57.9386 52.8586 57.5115 53.5455C57.2293 53.9988 56.9278 54.4439 56.5938 54.8569C53.4534 58.7372 48.0803 58.8297 44.837 55.0556C44.4257 54.5767 44.0758 54.0409 43.6909 53.5372C43.2514 52.963 42.7047 52.898 42.1483 53.3431C41.2518 54.0611 41.1217 54.8395 41.8961 55.8368C44.2226 58.8361 47.1618 60.6247 51.5803 60.6073V60.6082ZM44.8572 46.5313C46.0798 46.5313 47.3025 46.5523 48.5242 46.5248C49.593 46.5001 50.3217 45.7043 50.2962 44.6566C50.2716 43.6474 49.5394 42.944 48.4864 42.9422C46.0561 42.9367 43.6249 42.9211 41.1947 42.9596C40.7903 42.966 40.335 43.1391 40.001 43.3818C39.4218 43.8021 39.2592 44.6172 39.4904 45.3242C39.725 46.0413 40.3588 46.5129 41.1903 46.5267C42.412 46.5468 43.6346 46.5322 44.8572 46.5313Z" fill="#007CB4"/>
    </g>
    <defs>
    <filter id="filter0_d_968_1941" x="0.21723" y="0.616566" width="103.435" height="103.435" filterUnits="userSpaceOnUse" color-interpolation-filters="sRGB">
    <feFlood flood-opacity="0" result="BackgroundImageFix"/>
    <feColorMatrix in="SourceAlpha" type="matrix" values="0 0 0 0 0 0 0 0 0 0 0 0 0 0 0 0 0 0 127 0" result="hardAlpha"/>
    <feOffset dx="1.29293" dy="3.87879"/>
    <feGaussianBlur stdDeviation="7.75758"/>
    <feComposite in2="hardAlpha" operator="out"/>
    <feColorMatrix type="matrix" values="0 0 0 0 0.0208531 0 0 0 0 0.263507 0 0 0 0 0.379147 0 0 0 0.05 0"/>
    <feBlend mode="normal" in2="BackgroundImageFix" result="effect1_dropShadow_968_1941"/>
    <feBlend mode="normal" in="SourceGraphic" in2="effect1_dropShadow_968_1941" result="shape"/>
    </filter>
    </defs>
    </svg>
    