<svg  viewBox="0 0 104 105" fill="none" xmlns="http://www.w3.org/2000/svg">
    <g filter="url(#filter0_d_968_1935)">
    <rect x="14.6816" y="12.4951" width="72.404" height="72.404" rx="36.202" fill="#fff" shape-rendering="crispEdges"/>
    <path d="M36.752 59.2112L36.722 59.2412C36.317 58.3562 36.062 57.3512 35.957 56.2412C36.062 57.3362 36.347 58.3262 36.752 59.2112Z" fill="#007CB4"/>
    <path d="M46.3805 46.267C48.3522 46.267 49.9505 44.6686 49.9505 42.697C49.9505 40.7253 48.3522 39.127 46.3805 39.127C44.4089 39.127 42.8105 40.7253 42.8105 42.697C42.8105 44.6686 44.4089 46.267 46.3805 46.267Z" fill="#007CB4"/>
    <path d="M57.1698 33.6963H44.5998C39.1398 33.6963 35.8848 36.9513 35.8848 42.4113V54.9813C35.8848 56.6163 36.1698 58.0413 36.7248 59.2413C38.0148 62.0913 40.7748 63.6963 44.5998 63.6963H57.1698C62.6298 63.6963 65.8848 60.4413 65.8848 54.9813V51.5463V42.4113C65.8848 36.9513 62.6298 33.6963 57.1698 33.6963ZM63.4398 49.4463C62.2698 48.4413 60.3798 48.4413 59.2098 49.4463L52.9698 54.8013C51.7998 55.8063 49.9098 55.8063 48.7398 54.8013L48.2298 54.3813C47.1648 53.4513 45.4698 53.3613 44.2698 54.1713L38.6598 57.9363C38.3298 57.0963 38.1348 56.1213 38.1348 54.9813V42.4113C38.1348 38.1813 40.3698 35.9463 44.5998 35.9463H57.1698C61.3998 35.9463 63.6348 38.1813 63.6348 42.4113V49.6113L63.4398 49.4463Z" fill="#007CB4"/>
    </g>
    <defs>
    <filter id="filter0_d_968_1935" x="0.459418" y="0.858753" width="103.435" height="103.435" filterUnits="userSpaceOnUse" color-interpolation-filters="sRGB">
    <feFlood flood-opacity="0" result="BackgroundImageFix"/>
    <feColorMatrix in="SourceAlpha" type="matrix" values="0 0 0 0 0 0 0 0 0 0 0 0 0 0 0 0 0 0 127 0" result="hardAlpha"/>
    <feOffset dx="1.29293" dy="3.87879"/>
    <feGaussianBlur stdDeviation="7.75758"/>
    <feComposite in2="hardAlpha" operator="out"/>
    <feColorMatrix type="matrix" values="0 0 0 0 0.0208531 0 0 0 0 0.263507 0 0 0 0 0.379147 0 0 0 0.05 0"/>
    <feBlend mode="normal" in2="BackgroundImageFix" result="effect1_dropShadow_968_1935"/>
    <feBlend mode="normal" in="SourceGraphic" in2="effect1_dropShadow_968_1935" result="shape"/>
    </filter>
    </defs>
    </svg>
    