<svg width="105" height="104" viewBox="0 0 105 104" fill="none" xmlns="http://www.w3.org/2000/svg">
    <g filter="url(#filter0_d_968_1957)">
    <rect x="14.9453" y="12" width="72.404" height="72.404" rx="36.202" fill="#fff" shape-rendering="crispEdges"/>
    <path d="M52.9334 39.2021H43.3334C42.9434 39.2021 42.5684 39.2171 42.2084 39.2621C38.1734 39.6071 36.1484 41.9921 36.1484 46.3871V52.3871C36.1484 58.3871 38.5484 59.5721 43.3334 59.5721H43.9334C44.2634 59.5721 44.6984 59.7971 44.8934 60.0521L46.6934 62.4521C47.4884 63.5171 48.7784 63.5171 49.5734 62.4521L51.3734 60.0521C51.5984 59.7521 51.9584 59.5721 52.3334 59.5721H52.9334C57.3284 59.5721 59.7134 57.5621 60.0584 53.5121C60.1034 53.1521 60.1184 52.7771 60.1184 52.3871V46.3871C60.1184 41.6021 57.7184 39.2021 52.9334 39.2021ZM42.8984 51.2021C42.0584 51.2021 41.3984 50.5271 41.3984 49.7021C41.3984 48.8771 42.0734 48.2021 42.8984 48.2021C43.7234 48.2021 44.3984 48.8771 44.3984 49.7021C44.3984 50.5271 43.7234 51.2021 42.8984 51.2021ZM48.1334 51.2021C47.2934 51.2021 46.6334 50.5271 46.6334 49.7021C46.6334 48.8771 47.3084 48.2021 48.1334 48.2021C48.9584 48.2021 49.6334 48.8771 49.6334 49.7021C49.6334 50.5271 48.9734 51.2021 48.1334 51.2021ZM53.3834 51.2021C52.5434 51.2021 51.8834 50.5271 51.8834 49.7021C51.8834 48.8771 52.5584 48.2021 53.3834 48.2021C54.2084 48.2021 54.8834 48.8771 54.8834 49.7021C54.8834 50.5271 54.2084 51.2021 53.3834 51.2021Z" fill="#007CB4"/>
    <path d="M66.1169 40.3862V46.3862C66.1169 49.3862 65.1869 51.4262 63.3269 52.5512C62.8769 52.8212 62.3519 52.4612 62.3519 51.9362L62.3669 46.3862C62.3669 40.3862 58.9319 36.9512 52.9319 36.9512L43.7969 36.9662C43.2719 36.9662 42.9119 36.4412 43.1819 35.9912C44.3069 34.1312 46.3469 33.2012 49.3319 33.2012H58.9319C63.7169 33.2012 66.1169 35.6012 66.1169 40.3862Z" fill="#007CB4"/>
    </g>
    <defs>
    <filter id="filter0_d_968_1957" x="0.72309" y="0.363636" width="103.435" height="103.435" filterUnits="userSpaceOnUse" color-interpolation-filters="sRGB">
    <feFlood flood-opacity="0" result="BackgroundImageFix"/>
    <feColorMatrix in="SourceAlpha" type="matrix" values="0 0 0 0 0 0 0 0 0 0 0 0 0 0 0 0 0 0 127 0" result="hardAlpha"/>
    <feOffset dx="1.29293" dy="3.87879"/>
    <feGaussianBlur stdDeviation="7.75758"/>
    <feComposite in2="hardAlpha" operator="out"/>
    <feColorMatrix type="matrix" values="0 0 0 0 0.0208531 0 0 0 0 0.263507 0 0 0 0 0.379147 0 0 0 0.05 0"/>
    <feBlend mode="normal" in2="BackgroundImageFix" result="effect1_dropShadow_968_1957"/>
    <feBlend mode="normal" in="SourceGraphic" in2="effect1_dropShadow_968_1957" result="shape"/>
    </filter>
    </defs>
    </svg>
    