<svg width="104" height="105" viewBox="0 0 104 105" fill="none" xmlns="http://www.w3.org/2000/svg">
    <g filter="url(#filter0_d_968_1947)">
    <rect x="14.7422" y="12.2529" width="72.404" height="72.404" rx="36.202" fill="#fff" shape-rendering="crispEdges"/>
    <path d="M40.4453 42.4541C42.9306 42.4541 44.9453 40.4394 44.9453 37.9541C44.9453 35.4688 42.9306 33.4541 40.4453 33.4541C37.96 33.4541 35.9453 35.4688 35.9453 37.9541C35.9453 40.4394 37.96 42.4541 40.4453 42.4541Z" fill="#007CB4"/>
    <path d="M61.4434 52.9561C63.9286 52.9561 65.9434 50.9413 65.9434 48.4561C65.9434 45.9708 63.9286 43.9561 61.4434 43.9561C58.9581 43.9561 56.9434 45.9708 56.9434 48.4561C56.9434 50.9413 58.9581 52.9561 61.4434 52.9561Z" fill="#007CB4"/>
    <path d="M40.4453 63.4551C42.9306 63.4551 44.9453 61.4404 44.9453 58.9551C44.9453 56.4698 42.9306 54.4551 40.4453 54.4551C37.96 54.4551 35.9453 56.4698 35.9453 58.9551C35.9453 61.4404 37.96 63.4551 40.4453 63.4551Z" fill="#007CB4"/>
    <path d="M40.4453 55.5791C39.8303 55.5791 39.3203 55.0691 39.3203 54.4541V42.4541C39.3203 41.8391 39.8303 41.3291 40.4453 41.3291C41.0603 41.3291 41.5703 41.8391 41.5703 42.4541C41.5703 45.7391 43.1603 47.3291 46.4453 47.3291H56.9453C57.5603 47.3291 58.0703 47.8391 58.0703 48.4541C58.0703 49.0691 57.5603 49.5791 56.9453 49.5791H46.4453C44.4053 49.5791 42.7703 49.0541 41.5703 48.0641V54.4541C41.5703 55.0691 41.0603 55.5791 40.4453 55.5791Z" fill="#007CB4"/>
    </g>
    <defs>
    <filter id="filter0_d_968_1947" x="0.519965" y="0.616566" width="103.435" height="103.435" filterUnits="userSpaceOnUse" color-interpolation-filters="sRGB">
    <feFlood flood-opacity="0" result="BackgroundImageFix"/>
    <feColorMatrix in="SourceAlpha" type="matrix" values="0 0 0 0 0 0 0 0 0 0 0 0 0 0 0 0 0 0 127 0" result="hardAlpha"/>
    <feOffset dx="1.29293" dy="3.87879"/>
    <feGaussianBlur stdDeviation="7.75758"/>
    <feComposite in2="hardAlpha" operator="out"/>
    <feColorMatrix type="matrix" values="0 0 0 0 0.0208531 0 0 0 0 0.263507 0 0 0 0 0.379147 0 0 0 0.05 0"/>
    <feBlend mode="normal" in2="BackgroundImageFix" result="effect1_dropShadow_968_1947"/>
    <feBlend mode="normal" in="SourceGraphic" in2="effect1_dropShadow_968_1947" result="shape"/>
    </filter>
    </defs>
    </svg>
    