<svg width="104" height="105" viewBox="0 0 104 105" fill="none" xmlns="http://www.w3.org/2000/svg">
    <g filter="url(#filter0_d_968_1906)">
    <rect x="14.4395" y="12.4346" width="72.404" height="72.404" rx="36.202" fill="#fff" shape-rendering="crispEdges"/>
    <path d="M63.1783 49.7311C62.6233 49.7311 62.1583 49.3111 62.0983 48.7561C61.7383 45.4561 59.9683 42.4861 57.2383 40.5961C56.7433 40.2511 56.6233 39.5761 56.9683 39.0811C57.3133 38.5861 57.9883 38.4661 58.4833 38.8111C61.7383 41.0761 63.8383 44.6161 64.2733 48.5311C64.3333 49.1311 63.8983 49.6711 63.2983 49.7311C63.2533 49.7311 63.2233 49.7311 63.1783 49.7311Z" fill="#007CB4"/>
    <path d="M38.2496 49.8075C38.2196 49.8075 38.1746 49.8075 38.1446 49.8075C37.5446 49.7475 37.1096 49.2075 37.1696 48.6075C37.5746 44.6925 39.6446 41.1525 42.8696 38.8725C43.3496 38.5275 44.0396 38.6475 44.3846 39.1275C44.7296 39.6225 44.6096 40.2975 44.1296 40.6425C41.4296 42.5625 39.6746 45.5325 39.3446 48.8175C39.2846 49.3875 38.8046 49.8075 38.2496 49.8075Z" fill="#007CB4"/>
    <path d="M56.6255 62.2862C54.7805 63.1712 52.8005 63.6212 50.7305 63.6212C48.5705 63.6212 46.5155 63.1412 44.5955 62.1662C44.0555 61.9112 43.8455 61.2512 44.1155 60.7112C44.3705 60.1712 45.0305 59.9612 45.5705 60.2162C46.5155 60.6962 47.5205 61.0262 48.5405 61.2212C49.9205 61.4912 51.3305 61.5062 52.7105 61.2662C53.7305 61.0862 54.7355 60.7712 55.6655 60.3212C56.2205 60.0662 56.8805 60.2762 57.1205 60.8312C57.3905 61.3712 57.1805 62.0312 56.6255 62.2862Z" fill="#007CB4"/>
    <path d="M50.7144 33.6494C48.3894 33.6494 46.4844 35.5394 46.4844 37.8794C46.4844 40.2194 48.3744 42.1094 50.7144 42.1094C53.0544 42.1094 54.9444 40.2194 54.9444 37.8794C54.9444 35.5394 53.0544 33.6494 50.7144 33.6494Z" fill="#007CB4"/>
    <path d="M40.2144 51.4404C37.8894 51.4404 35.9844 53.3304 35.9844 55.6704C35.9844 58.0104 37.8744 59.9004 40.2144 59.9004C42.5544 59.9004 44.4444 58.0104 44.4444 55.6704C44.4444 53.3304 42.5394 51.4404 40.2144 51.4404Z" fill="#007CB4"/>
    <path d="M61.064 51.4404C58.739 51.4404 56.834 53.3304 56.834 55.6704C56.834 58.0104 58.724 59.9004 61.064 59.9004C63.404 59.9004 65.294 58.0104 65.294 55.6704C65.294 53.3304 63.404 51.4404 61.064 51.4404Z" fill="#007CB4"/>
    </g>
    <defs>
    <filter id="filter0_d_968_1906" x="0.21723" y="0.798206" width="103.435" height="103.435" filterUnits="userSpaceOnUse" color-interpolation-filters="sRGB">
    <feFlood flood-opacity="0" result="BackgroundImageFix"/>
    <feColorMatrix in="SourceAlpha" type="matrix" values="0 0 0 0 0 0 0 0 0 0 0 0 0 0 0 0 0 0 127 0" result="hardAlpha"/>
    <feOffset dx="1.29293" dy="3.87879"/>
    <feGaussianBlur stdDeviation="7.75758"/>
    <feComposite in2="hardAlpha" operator="out"/>
    <feColorMatrix type="matrix" values="0 0 0 0 0.0208531 0 0 0 0 0.263507 0 0 0 0 0.379147 0 0 0 0.05 0"/>
    <feBlend mode="normal" in2="BackgroundImageFix" result="effect1_dropShadow_968_1906"/>
    <feBlend mode="normal" in="SourceGraphic" in2="effect1_dropShadow_968_1906" result="shape"/>
    </filter>
    </defs>
    </svg>
    