<svg viewBox="0 0 104 104" fill="none" xmlns="http://www.w3.org/2000/svg">
    <g filter="url(#filter0_d_968_1984)">
    <rect x="14.9141" y="12.4951" width="72.404" height="72.404" rx="36.202" fill="#007CB4" fill-opacity="0.12" shape-rendering="crispEdges"/>
    <path d="M64.5402 36.8923C64.1052 36.2623 63.5502 35.7073 62.9202 35.2723C61.4952 34.2373 59.6352 33.6973 57.4002 33.6973H44.8302C44.5302 33.6973 44.2302 33.7123 43.9452 33.7423C39.0252 34.0573 36.1152 37.2523 36.1152 42.4123V54.9823C36.1152 57.2173 36.6552 59.0773 37.6902 60.5023C38.1252 61.1323 38.6802 61.6873 39.3102 62.1223C40.5402 63.0223 42.1002 63.5473 43.9452 63.6673C44.2302 63.6823 44.5302 63.6973 44.8302 63.6973H57.4002C62.8602 63.6973 66.1152 60.4423 66.1152 54.9823V42.4123C66.1152 40.1773 65.5752 38.3173 64.5402 36.8923ZM61.2402 44.0473C61.2402 44.6623 60.7302 45.1723 60.1152 45.1723C59.5002 45.1723 58.9902 44.6623 58.9902 44.0473V42.2773C58.9902 41.7973 58.6002 41.4073 58.1202 41.4073H52.2402V55.9873H54.9102C55.5252 55.9873 56.0352 56.4973 56.0352 57.1123C56.0352 57.7273 55.5252 58.2373 54.9102 58.2373H47.3202C46.7052 58.2373 46.1952 57.7273 46.1952 57.1123C46.1952 56.4973 46.7052 55.9873 47.3202 55.9873H49.9902V41.4073H44.1102C43.6302 41.4073 43.2402 41.7973 43.2402 42.2773V44.0473C43.2402 44.6623 42.7302 45.1723 42.1152 45.1723C41.5002 45.1723 40.9902 44.6623 40.9902 44.0473V42.2773C40.9902 40.5523 42.3852 39.1573 44.1102 39.1573H58.1052C59.8302 39.1573 61.2252 40.5523 61.2252 42.2773V44.0473H61.2402Z" fill="#007CB4"/>
    </g>
    <defs>
    <filter id="filter0_d_968_1984" x="0.69184" y="0.858753" width="103.435" height="103.435" filterUnits="userSpaceOnUse" color-interpolation-filters="sRGB">
    <feFlood flood-opacity="0" result="BackgroundImageFix"/>
    <feColorMatrix in="SourceAlpha" type="matrix" values="0 0 0 0 0 0 0 0 0 0 0 0 0 0 0 0 0 0 127 0" result="hardAlpha"/>
    <feOffset dx="1.29293" dy="3.87879"/>
    <feGaussianBlur stdDeviation="7.75758"/>
    <feComposite in2="hardAlpha" operator="out"/>
    <feColorMatrix type="matrix" values="0 0 0 0 0.0208531 0 0 0 0 0.263507 0 0 0 0 0.379147 0 0 0 0.05 0"/>
    <feBlend mode="normal" in2="BackgroundImageFix" result="effect1_dropShadow_968_1984"/>
    <feBlend mode="normal" in="SourceGraphic" in2="effect1_dropShadow_968_1984" result="shape"/>
    </filter>
    </defs>
    </svg>
    