<svg width="105" height="105" viewBox="0 0 105 105" fill="none" xmlns="http://www.w3.org/2000/svg">
    <g filter="url(#filter0_d_968_1984)">
    <rect x="14.9141" y="12.4951" width="72.404" height="72.404" rx="36.202" fill="#fff" shape-rendering="crispEdges"/>
    <path d="M49.6152 60.5473V36.8473C49.6152 34.5973 48.6552 33.6973 46.2702 33.6973H40.2102C37.8252 33.6973 36.8652 34.5973 36.8652 36.8473V60.5473C36.8652 62.7973 37.8252 63.6973 40.2102 63.6973H46.2702C48.6552 63.6973 49.6152 62.7973 49.6152 60.5473Z" fill="#007CB4"/>
    <path d="M65.3652 60.1573V53.7373C65.3652 51.7873 63.8652 50.1973 62.0202 50.1973H55.9602C54.1152 50.1973 52.6152 51.7873 52.6152 53.7373V60.1573C52.6152 62.1073 54.1152 63.6973 55.9602 63.6973H62.0202C63.8652 63.6973 65.3652 62.1073 65.3652 60.1573Z" fill="#007CB4"/>
    <path d="M65.3652 43.6573V37.2373C65.3652 35.2873 63.8652 33.6973 62.0202 33.6973H55.9602C54.1152 33.6973 52.6152 35.2873 52.6152 37.2373V43.6573C52.6152 45.6073 54.1152 47.1973 55.9602 47.1973H62.0202C63.8652 47.1973 65.3652 45.6073 65.3652 43.6573Z" fill="#007CB4"/>
    </g>
    <defs>
    <filter id="filter0_d_968_1984" x="0.69184" y="0.858753" width="103.435" height="103.435" filterUnits="userSpaceOnUse" color-interpolation-filters="sRGB">
    <feFlood flood-opacity="0" result="BackgroundImageFix"/>
    <feColorMatrix in="SourceAlpha" type="matrix" values="0 0 0 0 0 0 0 0 0 0 0 0 0 0 0 0 0 0 127 0" result="hardAlpha"/>
    <feOffset dx="1.29293" dy="3.87879"/>
    <feGaussianBlur stdDeviation="7.75758"/>
    <feComposite in2="hardAlpha" operator="out"/>
    <feColorMatrix type="matrix" values="0 0 0 0 0.0208531 0 0 0 0 0.263507 0 0 0 0 0.379147 0 0 0 0.05 0"/>
    <feBlend mode="normal" in2="BackgroundImageFix" result="effect1_dropShadow_968_1984"/>
    <feBlend mode="normal" in="SourceGraphic" in2="effect1_dropShadow_968_1984" result="shape"/>
    </filter>
    </defs>
    </svg>
    