<svg width="105" height="105" viewBox="0 0 105 105" fill="none" xmlns="http://www.w3.org/2000/svg">
    <g filter="url(#filter0_d_968_1901)">
    <rect x="14.9453" y="12.3936" width="72.404" height="72.404" rx="36.202" fill="#fff" shape-rendering="crispEdges"/>
    <path d="M60.1465 35.0957H42.1465C38.8315 35.0957 36.1465 37.7657 36.1465 41.0507V56.1407C36.1465 59.4257 38.8315 62.0957 42.1465 62.0957H60.1465C63.4615 62.0957 66.1465 59.4257 66.1465 56.1407V41.0507C66.1465 37.7657 63.4615 35.0957 60.1465 35.0957ZM45.8965 41.3507C47.8015 41.3507 49.3615 42.9107 49.3615 44.8157C49.3615 46.7207 47.8015 48.2807 45.8965 48.2807C43.9915 48.2807 42.4315 46.7207 42.4315 44.8157C42.4315 42.9107 43.9915 41.3507 45.8965 41.3507ZM51.7015 55.5857C51.5665 55.7357 51.3565 55.8257 51.1465 55.8257H40.6465C40.4365 55.8257 40.2265 55.7357 40.0915 55.5857C39.9565 55.4357 39.8815 55.2257 39.8965 55.0157C40.1515 52.4957 42.1615 50.5007 44.6815 50.2607C45.4765 50.1857 46.3015 50.1857 47.0965 50.2607C49.6165 50.5007 51.6415 52.4957 51.8815 55.0157C51.9115 55.2257 51.8365 55.4357 51.7015 55.5857ZM61.6465 55.7207H58.6465C58.0315 55.7207 57.5215 55.2107 57.5215 54.5957C57.5215 53.9807 58.0315 53.4707 58.6465 53.4707H61.6465C62.2615 53.4707 62.7715 53.9807 62.7715 54.5957C62.7715 55.2107 62.2615 55.7207 61.6465 55.7207ZM61.6465 49.7207H55.6465C55.0315 49.7207 54.5215 49.2107 54.5215 48.5957C54.5215 47.9807 55.0315 47.4707 55.6465 47.4707H61.6465C62.2615 47.4707 62.7715 47.9807 62.7715 48.5957C62.7715 49.2107 62.2615 49.7207 61.6465 49.7207ZM61.6465 43.7207H54.1465C53.5315 43.7207 53.0215 43.2107 53.0215 42.5957C53.0215 41.9807 53.5315 41.4707 54.1465 41.4707H61.6465C62.2615 41.4707 62.7715 41.9807 62.7715 42.5957C62.7715 43.2107 62.2615 43.7207 61.6465 43.7207Z" fill="#007CB4"/>
    </g>
    <defs>
    <filter id="filter0_d_968_1901" x="0.72309" y="0.757191" width="103.435" height="103.435" filterUnits="userSpaceOnUse" color-interpolation-filters="sRGB">
    <feFlood flood-opacity="0" result="BackgroundImageFix"/>
    <feColorMatrix in="SourceAlpha" type="matrix" values="0 0 0 0 0 0 0 0 0 0 0 0 0 0 0 0 0 0 127 0" result="hardAlpha"/>
    <feOffset dx="1.29293" dy="3.87879"/>
    <feGaussianBlur stdDeviation="7.75758"/>
    <feComposite in2="hardAlpha" operator="out"/>
    <feColorMatrix type="matrix" values="0 0 0 0 0.0208531 0 0 0 0 0.263507 0 0 0 0 0.379147 0 0 0 0.05 0"/>
    <feBlend mode="normal" in2="BackgroundImageFix" result="effect1_dropShadow_968_1901"/>
    <feBlend mode="normal" in="SourceGraphic" in2="effect1_dropShadow_968_1901" result="shape"/>
    </filter>
    </defs>
    </svg>
    