<svg width="104" height="104" viewBox="0 0 104 104" fill="none" xmlns="http://www.w3.org/2000/svg">
    <g filter="url(#filter0_d_1158_205)">
    <rect x="14.248" y="11.6973" width="72.404" height="72.404" rx="36.202" fill="#fff" shape-rendering="crispEdges"/>
    <path d="M65.8701 46.4453L54.6201 57.6953C54.4627 57.8528 54.2622 57.9601 54.0439 58.0035C53.8255 58.047 53.5992 58.0247 53.3935 57.9395C53.1878 57.8543 53.0121 57.71 52.8884 57.5248C52.7648 57.3396 52.699 57.122 52.6991 56.8993V51.3067C44.6694 51.7623 39.164 56.9696 37.6185 58.6192C37.3758 58.8783 37.0576 59.0544 36.7091 59.1222C36.3606 59.19 35.9996 59.1462 35.6774 58.9969C35.3552 58.8477 35.0884 58.6006 34.9147 58.2909C34.7411 57.9812 34.6696 57.6247 34.7104 57.272C35.2321 52.7354 37.7169 48.3718 41.7079 44.9856C45.0224 42.1731 49.0513 40.3885 52.6991 40.0764V34.3993C52.699 34.1767 52.7648 33.959 52.8884 33.7738C53.0121 33.5887 53.1878 33.4443 53.3935 33.3591C53.5992 33.2739 53.8255 33.2516 54.0439 33.2951C54.2622 33.3386 54.4627 33.4459 54.6201 33.6034L65.8701 44.8534C65.9747 44.9579 66.0576 45.0819 66.1143 45.2185C66.1709 45.3551 66.2 45.5015 66.2 45.6493C66.2 45.7972 66.1709 45.9436 66.1143 46.0801C66.0576 46.2167 65.9747 46.3408 65.8701 46.4453Z" fill="#007CB4"/>
    </g>
    <defs>
    <filter id="filter0_d_1158_205" x="0.0258242" y="0.0609016" width="103.435" height="103.435" filterUnits="userSpaceOnUse" color-interpolation-filters="sRGB">
    <feFlood flood-opacity="0" result="BackgroundImageFix"/>
    <feColorMatrix in="SourceAlpha" type="matrix" values="0 0 0 0 0 0 0 0 0 0 0 0 0 0 0 0 0 0 127 0" result="hardAlpha"/>
    <feOffset dx="1.29293" dy="3.87879"/>
    <feGaussianBlur stdDeviation="7.75758"/>
    <feComposite in2="hardAlpha" operator="out"/>
    <feColorMatrix type="matrix" values="0 0 0 0 0.0208531 0 0 0 0 0.263507 0 0 0 0 0.379147 0 0 0 0.05 0"/>
    <feBlend mode="normal" in2="BackgroundImageFix" result="effect1_dropShadow_1158_205"/>
    <feBlend mode="normal" in="SourceGraphic" in2="effect1_dropShadow_1158_205" result="shape"/>
    </filter>
    </defs>
    </svg>
    