<svg width="104" height="104" viewBox="0 0 104 104" fill="none" xmlns="http://www.w3.org/2000/svg">
    <g filter="url(#filter0_d_968_1923)">
    <rect x="14.6406" y="11.6973" width="72.404" height="72.404" rx="36.202" fill="#fff" shape-rendering="crispEdges"/>
    <g clip-path="url(#clip0_968_1923)">
    <path d="M60.4634 64.2035C59.5365 63.7904 58.7187 63.1668 58.0752 62.3822C57.4317 61.5976 56.9802 60.6736 56.7565 59.6838C56.7355 59.5938 56.6862 59.513 56.6159 59.4532C55.9217 58.8528 55.3399 58.1338 54.8974 57.3297C54.7227 57.0215 54.639 56.67 54.656 56.3161C54.673 55.9622 54.7901 55.6204 54.9935 55.3303C55.197 55.0403 55.4786 54.8139 55.8056 54.6774C56.1326 54.541 56.4916 54.5 56.8409 54.5594C57.0671 54.6005 57.2975 54.6146 57.5271 54.6016C57.589 54.5979 57.6493 54.5806 57.7038 54.551C57.7582 54.5213 57.8054 54.48 57.8421 54.43C58.7307 53.2145 60.0244 52.3567 61.4899 52.0113C61.5814 51.9893 61.6629 51.9371 61.721 51.8631C61.7792 51.7891 61.8108 51.6976 61.8105 51.6035V48.5266C61.8105 48.4248 61.7738 48.3265 61.7071 48.2495C61.6405 48.1726 61.5484 48.1222 61.4477 48.1075C61.203 48.071 60.9865 48.0316 60.7868 47.9838C59.9511 47.7818 59.1585 47.4312 58.4468 46.9488C58.3693 46.8933 58.2745 46.8674 58.1796 46.8757C57.1471 46.9353 56.1123 46.8076 55.1252 46.4988C53.573 46.0974 53.2276 43.868 54.5852 43.0141C54.846 42.8377 55.0824 42.6278 55.2884 42.3897C55.3287 42.3442 55.3584 42.2904 55.3754 42.232C55.3924 42.1737 55.3963 42.1123 55.3868 42.0522C55.1963 40.7182 55.3854 39.3575 55.9324 38.126C56.4188 37.0185 57.1804 36.0539 58.1448 35.3239C59.1091 34.5938 60.2442 34.1226 61.4421 33.955C61.5459 33.9398 61.6403 33.8864 61.7069 33.8053C61.7735 33.7241 61.8074 33.6211 61.8021 33.5163C61.758 32.5415 61.3395 31.6214 60.6337 30.9476C59.9279 30.2738 58.9894 29.8983 58.0137 29.8994H43.6699C42.6634 29.9009 41.6985 30.3014 40.9868 31.0131C40.275 31.7249 39.8745 32.6898 39.873 33.6963V39.9682C39.8737 40.0272 39.8865 40.0854 39.9109 40.1391C39.9352 40.1929 39.9704 40.241 40.0143 40.2804C40.0582 40.3198 40.1098 40.3496 40.1659 40.368C40.2219 40.3864 40.2812 40.393 40.3399 40.3872C40.6622 40.353 40.9861 40.3352 41.3102 40.3338C43.0888 40.3355 44.8293 40.8489 46.324 41.813C47.8186 42.777 49.0042 44.1508 49.7393 45.7704C49.7634 45.8246 49.7987 45.8731 49.8428 45.9129C49.8868 45.9526 49.9388 45.9826 49.9952 46.001C50.5373 46.1787 51.1039 46.2698 51.6743 46.271C52.0891 46.2729 52.4949 46.3921 52.8449 46.6147C53.1949 46.8373 53.4749 47.1544 53.6524 47.5292C53.83 47.9041 53.898 48.3215 53.8486 48.7334C53.7992 49.1452 53.6343 49.5347 53.373 49.8569C52.4959 50.9705 51.4096 51.902 50.1752 52.5991C50.085 52.6463 50.0158 52.7255 49.9812 52.8213C49.3217 54.5916 48.1359 56.1175 46.5831 57.1935C45.0304 58.2696 43.1853 58.8442 41.2962 58.84C40.9767 58.8375 40.6575 58.8187 40.3399 58.7838C40.2812 58.7781 40.222 58.7847 40.166 58.8032C40.11 58.8216 40.0584 58.8514 40.0145 58.8908C39.9706 58.9302 39.9354 58.9783 39.911 59.032C39.8867 59.0857 39.8737 59.1439 39.873 59.2029V62.1025C39.8745 63.1091 40.275 64.074 40.9868 64.7857C41.6985 65.4974 42.6634 65.8979 43.6699 65.8994H58.0137C58.9632 65.8996 59.878 65.5421 60.5759 64.8982C60.6271 64.8509 60.6658 64.7917 60.6886 64.7258C60.7114 64.6599 60.7175 64.5894 60.7063 64.5206C60.6952 64.4518 60.6671 64.3868 60.6247 64.3315C60.5824 64.2761 60.5269 64.2321 60.4634 64.2035ZM48.198 32.9932C47.8752 32.9831 47.5612 32.8857 47.2893 32.7114C47.0174 32.5371 46.7979 32.2923 46.654 32.0032L45.979 30.7432H55.7074L55.0296 32.0032C54.8857 32.2923 54.6662 32.5371 54.3943 32.7114C54.1224 32.8857 53.8084 32.9831 53.4855 32.9932H48.198ZM53.7949 62.2432H47.8887C47.7768 62.2432 47.6695 62.1987 47.5904 62.1196C47.5112 62.0405 47.4668 61.9332 47.4668 61.8213C47.4668 61.7094 47.5112 61.6021 47.5904 61.523C47.6695 61.4439 47.7768 61.3994 47.8887 61.3994H53.7949C53.9068 61.3994 54.0141 61.4439 54.0932 61.523C54.1723 61.6021 54.2168 61.7094 54.2168 61.8213C54.2168 61.9332 54.1723 62.0405 54.0932 62.1196C54.0141 62.1987 53.9068 62.2432 53.7949 62.2432ZM62.5089 58.8682H63.6232L63.9247 57.7432H62.8104L62.5089 58.8682Z" fill="#007CB4"/>
    <path d="M60.9149 53.074C59.8141 53.5163 58.8849 54.3013 58.265 55.3128C58.2556 55.3275 58.2433 55.3401 58.2288 55.3498C58.2142 55.3595 58.1978 55.3661 58.1806 55.369C57.6901 55.4685 57.1853 55.4762 56.692 55.3918C56.5007 55.3593 56.3041 55.3818 56.1251 55.4566C55.9461 55.5314 55.792 55.6554 55.6807 55.8144C55.5694 55.9733 55.5054 56.1605 55.4963 56.3543C55.4872 56.5481 55.5332 56.7405 55.6291 56.9092C56.0793 57.7424 56.7026 58.4696 57.4572 59.0419C57.4704 59.051 57.4815 59.0626 57.4901 59.0761C57.4987 59.0896 57.5046 59.1046 57.5073 59.1203C57.903 61.8327 60.4562 63.9789 63.1213 63.9497C64.1417 63.9381 65.1396 63.6489 66.0081 63.1133C66.8766 62.5776 67.5828 61.8155 68.0511 60.9089C68.5194 60.0023 68.7321 58.9854 68.6663 57.9671C68.6005 56.9488 68.2587 55.9676 67.6776 55.1288C66.9482 54.0728 65.8827 53.2949 64.6547 52.9218C63.4267 52.5486 62.1085 52.6023 60.9149 53.074ZM65.6067 57.7428H64.7976L64.4964 58.8678H65.3255C65.4374 58.8678 65.5447 58.9122 65.6238 58.9913C65.7029 59.0705 65.7474 59.1778 65.7474 59.2897C65.7474 59.4015 65.7029 59.5089 65.6238 59.588C65.5447 59.6671 65.4374 59.7115 65.3255 59.7115H64.2702L64.0005 60.7176C63.9862 60.7711 63.9614 60.8213 63.9277 60.8653C63.8939 60.9093 63.8518 60.9462 63.8038 60.9739C63.7558 61.0017 63.7028 61.0196 63.6478 61.0269C63.5929 61.0341 63.537 61.0305 63.4834 61.0161C63.4299 61.0018 63.3797 60.977 63.3357 60.9433C63.2917 60.9095 63.2548 60.8674 63.2271 60.8194C63.1994 60.7714 63.1814 60.7184 63.1741 60.6634C63.1669 60.6084 63.1705 60.5526 63.1849 60.499L63.3958 59.7115H62.2815L62.0087 60.7299C61.9944 60.7835 61.9696 60.8337 61.9359 60.8777C61.9021 60.9217 61.86 60.9586 61.812 60.9863C61.764 61.014 61.711 61.032 61.656 61.0393C61.601 61.0465 61.5452 61.0428 61.4916 61.0285C61.4381 61.0141 61.3879 60.9894 61.3439 60.9556C61.2999 60.9219 61.263 60.8798 61.2353 60.8318C61.2075 60.7838 61.1896 60.7308 61.1823 60.6758C61.1751 60.6208 61.1787 60.565 61.1931 60.5114L61.4074 59.7115H60.8255C60.7136 59.7115 60.6063 59.6671 60.5272 59.588C60.4481 59.5089 60.4036 59.4015 60.4036 59.2897C60.4036 59.1778 60.4481 59.0705 60.5272 58.9913C60.6063 58.9122 60.7136 58.8678 60.8255 58.8678H61.6346L61.9359 57.7428H61.1067C60.9949 57.7428 60.8875 57.6983 60.8084 57.6192C60.7293 57.5401 60.6849 57.4328 60.6849 57.3209C60.6849 57.209 60.7293 57.1017 60.8084 57.0226C60.8875 56.9435 60.9949 56.899 61.1067 56.899H62.162L62.4317 55.893C62.4607 55.7848 62.5314 55.6926 62.6284 55.6366C62.7254 55.5806 62.8406 55.5655 62.9488 55.5945C63.0569 55.6234 63.1492 55.6942 63.2052 55.7912C63.2611 55.8881 63.2763 56.0034 63.2473 56.1115L63.0364 56.899H64.1507L64.4235 55.8806C64.4379 55.8271 64.4626 55.7769 64.4964 55.7329C64.5301 55.6889 64.5722 55.652 64.6202 55.6243C64.6682 55.5965 64.7213 55.5785 64.7762 55.5713C64.8312 55.5641 64.887 55.5677 64.9406 55.5821C64.9942 55.5964 65.0444 55.6212 65.0883 55.6549C65.1323 55.6887 65.1692 55.7308 65.197 55.7788C65.2247 55.8268 65.2427 55.8798 65.2499 55.9348C65.2572 55.9897 65.2535 56.0456 65.2391 56.0992L65.0237 56.899H65.6067C65.7186 56.899 65.8259 56.9435 65.9051 57.0226C65.9842 57.1017 66.0286 57.209 66.0286 57.3209C66.0286 57.4328 65.9842 57.5401 65.9051 57.6192C65.8259 57.6983 65.7186 57.7428 65.6067 57.7428ZM56.7046 38.4665C56.1605 39.6842 56.0177 41.0435 56.2968 42.3477C56.3025 42.3755 56.3024 42.4042 56.2965 42.4319C56.2906 42.4596 56.279 42.4858 56.2625 42.5089C55.9396 42.9814 55.5318 43.3898 55.0599 43.7135C54.888 43.8319 54.7531 43.9963 54.6704 44.1879C54.5877 44.3794 54.5607 44.5904 54.5924 44.7967C54.6242 45.0029 54.7134 45.196 54.8498 45.3539C54.9863 45.5118 55.1644 45.628 55.3639 45.6893C56.3689 46.0148 57.4325 46.119 58.4816 45.9947C58.5054 45.9912 58.5297 45.9924 58.553 45.9983C58.5764 46.0042 58.5984 46.0146 58.6177 46.029C59.7279 46.8746 61.0834 47.3357 62.479 47.3424C67.1019 47.3635 70.2086 42.3053 68.0722 38.1546C65.6723 33.4937 58.8317 33.6515 56.7046 38.4665ZM62.8991 43.8597C62.7814 43.9265 62.6484 43.9616 62.513 43.9616C62.3776 43.9616 62.2446 43.9265 62.1268 43.8597C60.4767 42.9218 59.5393 41.7571 59.5793 40.2808C59.5783 40.0634 59.6201 39.848 59.7024 39.6467C59.7846 39.4455 59.9057 39.2624 60.0588 39.108C60.2118 38.9536 60.3937 38.8308 60.5942 38.7467C60.7946 38.6626 61.0097 38.6188 61.2271 38.6178C61.4747 38.6177 61.719 38.6737 61.9417 38.7817C62.1645 38.8897 62.3598 39.0469 62.513 39.2413C62.6662 39.0469 62.8615 38.8897 63.0842 38.7817C63.307 38.6737 63.5513 38.6177 63.7989 38.6178C64.0163 38.6188 64.2313 38.6626 64.4318 38.7467C64.6323 38.8308 64.8142 38.9536 64.9672 39.108C65.1202 39.2624 65.2413 39.4455 65.3236 39.6467C65.4059 39.848 65.4477 40.0634 65.4467 40.2808C65.4881 41.7571 64.5492 42.9209 62.8991 43.8597ZM49.2942 52.228C49.3114 52.1781 49.3382 52.132 49.3733 52.0924C49.4083 52.0529 49.4509 52.0207 49.4984 51.9977C50.753 51.348 51.852 50.4345 52.7201 49.3199C52.8798 49.1214 52.9804 48.8819 53.0102 48.6288C53.04 48.3758 52.9979 48.1195 52.8887 47.8893C52.7795 47.6591 52.6077 47.4643 52.3928 47.3273C52.178 47.1903 51.929 47.1166 51.6742 47.1146C50.8786 47.1105 50.0907 46.9586 49.3505 46.6669C49.295 46.646 49.2445 46.614 49.2019 46.5728C49.1592 46.5317 49.1255 46.4822 49.1027 46.4275C48.4349 44.7786 47.2604 43.3845 45.7488 42.4464C39.8035 38.7199 32.1788 43.6665 32.9643 50.6047C33.4286 54.7053 37.2221 58.0927 41.3124 58.0072C44.7633 58.0825 48.2455 55.614 49.2942 52.228ZM39.3099 53.1643C39.1819 53.2393 39.0363 53.2788 38.888 53.2788H37.763C37.5392 53.2788 37.3246 53.1899 37.1664 53.0317C37.0081 52.8734 36.9192 52.6588 36.9192 52.435V48.2163C36.9192 47.9925 37.0081 47.7779 37.1664 47.6197C37.3246 47.4614 37.5392 47.3725 37.763 47.3725H38.888C39.0361 47.3723 39.1816 47.4111 39.3099 47.485V53.1643ZM40.1536 52.7863V47.7334C40.9799 46.9667 41.5115 45.4058 41.8656 44.67C42.4888 43.374 43.7443 45.1124 43.4375 46.0481C43.3315 46.3721 43.1067 47.37 43.1067 47.37C43.7781 47.37 44.4219 47.6367 44.8966 48.1114C45.3713 48.5861 45.638 49.2299 45.638 49.9013V50.745C45.638 51.4163 45.3713 52.0602 44.8966 52.5349C44.4219 53.0096 43.7781 53.2763 43.1067 53.2763H41.5362C41.2743 53.2762 41.0159 53.2151 40.7816 53.0979L40.1536 52.7863Z" fill="#007CB4"/>
    </g>
    </g>
    <defs>
    <filter id="filter0_d_968_1923" x="0.418402" y="0.0609016" width="103.435" height="103.435" filterUnits="userSpaceOnUse" color-interpolation-filters="sRGB">
    <feFlood flood-opacity="0" result="BackgroundImageFix"/>
    <feColorMatrix in="SourceAlpha" type="matrix" values="0 0 0 0 0 0 0 0 0 0 0 0 0 0 0 0 0 0 127 0" result="hardAlpha"/>
    <feOffset dx="1.29293" dy="3.87879"/>
    <feGaussianBlur stdDeviation="7.75758"/>
    <feComposite in2="hardAlpha" operator="out"/>
    <feColorMatrix type="matrix" values="0 0 0 0 0.0208531 0 0 0 0 0.263507 0 0 0 0 0.379147 0 0 0 0.05 0"/>
    <feBlend mode="normal" in2="BackgroundImageFix" result="effect1_dropShadow_968_1923"/>
    <feBlend mode="normal" in="SourceGraphic" in2="effect1_dropShadow_968_1923" result="shape"/>
    </filter>
    <clipPath id="clip0_968_1923">
    <rect width="36" height="36" fill="white" transform="translate(32.8418 29.8994)"/>
    </clipPath>
    </defs>
    </svg>
    