<svg width="104" height="104" viewBox="0 0 104 104" fill="none" xmlns="http://www.w3.org/2000/svg">
    <g filter="url(#filter0_d_968_1923)">
    <rect x="14.6406" y="11.6973" width="72.404" height="72.404" rx="36.202" fill="#007CB4" fill-opacity="0.12" shape-rendering="crispEdges"/>
    <path d="M36.9968 44.8994C36.3518 44.8994 35.8418 44.3894 35.8418 43.7444V40.2794C35.8418 36.2144 39.1568 32.8994 43.2218 32.8994H46.6868C47.3318 32.8994 47.8418 33.4094 47.8418 34.0544C47.8418 34.6994 47.3318 35.2094 46.6868 35.2094H43.2218C40.4168 35.2094 38.1518 37.4894 38.1518 40.2794V43.7444C38.1518 44.3894 37.6268 44.8994 36.9968 44.8994Z" fill="#007CB4"/>
    <path d="M64.6868 44.8994C64.0568 44.8994 63.5318 44.3894 63.5318 43.7444V40.2794C63.5318 37.4744 61.2518 35.2094 58.4618 35.2094H54.9968C54.3518 35.2094 53.8418 34.6844 53.8418 34.0544C53.8418 33.4244 54.3518 32.8994 54.9968 32.8994H58.4618C62.5268 32.8994 65.8418 36.2144 65.8418 40.2794V43.7444C65.8418 44.3894 65.3318 44.8994 64.6868 44.8994Z" fill="#007CB4"/>
    <path d="M58.4627 62.8989H56.3777C55.7477 62.8989 55.2227 62.3889 55.2227 61.7439C55.2227 61.1139 55.7327 60.5889 56.3777 60.5889H58.4627C61.2677 60.5889 63.5327 58.3089 63.5327 55.5189V53.4489C63.5327 52.8189 64.0427 52.2939 64.6877 52.2939C65.3177 52.2939 65.8427 52.8039 65.8427 53.4489V55.5189C65.8427 59.5839 62.5277 62.8989 58.4627 62.8989Z" fill="#007CB4"/>
    <path d="M46.6868 62.8994H43.2218C39.1568 62.8994 35.8418 59.5844 35.8418 55.5194V52.0544C35.8418 51.4094 36.3518 50.8994 36.9968 50.8994C37.6418 50.8994 38.1518 51.4094 38.1518 52.0544V55.5194C38.1518 58.3244 40.4318 60.5894 43.2218 60.5894H46.6868C47.3168 60.5894 47.8418 61.0994 47.8418 61.7444C47.8418 62.3894 47.3318 62.8994 46.6868 62.8994Z" fill="#007CB4"/>
    <path d="M60.5311 46.7451H58.4911H43.1911H41.1511C40.5061 46.7451 39.9961 47.2701 39.9961 47.9001C39.9961 48.5301 40.5061 49.0551 41.1511 49.0551H43.1911H58.4911H60.5311C61.1761 49.0551 61.6861 48.5301 61.6861 47.9001C61.6861 47.2701 61.1761 46.7451 60.5311 46.7451Z" fill="#007CB4"/>
    <path d="M43.1914 50.8101V51.3051C43.1914 53.7951 45.2014 55.8051 47.6914 55.8051H53.9914C56.4814 55.8051 58.4914 53.7951 58.4914 51.3051V50.8101C58.4914 50.6301 58.3564 50.4951 58.1764 50.4951H43.5064C43.3264 50.4951 43.1914 50.6301 43.1914 50.8101Z" fill="#007CB4"/>
    <path d="M43.1914 44.9901V44.4951C43.1914 42.0051 45.2014 39.9951 47.6914 39.9951H53.9914C56.4814 39.9951 58.4914 42.0051 58.4914 44.4951V44.9901C58.4914 45.1701 58.3564 45.3051 58.1764 45.3051H43.5064C43.3264 45.3051 43.1914 45.1701 43.1914 44.9901Z" fill="#007CB4"/>
    </g>
    <defs>
    <filter id="filter0_d_968_1923" x="0.418402" y="0.0609016" width="103.435" height="103.435" filterUnits="userSpaceOnUse" color-interpolation-filters="sRGB">
    <feFlood flood-opacity="0" result="BackgroundImageFix"/>
    <feColorMatrix in="SourceAlpha" type="matrix" values="0 0 0 0 0 0 0 0 0 0 0 0 0 0 0 0 0 0 127 0" result="hardAlpha"/>
    <feOffset dx="1.29293" dy="3.87879"/>
    <feGaussianBlur stdDeviation="7.75758"/>
    <feComposite in2="hardAlpha" operator="out"/>
    <feColorMatrix type="matrix" values="0 0 0 0 0.0208531 0 0 0 0 0.263507 0 0 0 0 0.379147 0 0 0 0.05 0"/>
    <feBlend mode="normal" in2="BackgroundImageFix" result="effect1_dropShadow_968_1923"/>
    <feBlend mode="normal" in="SourceGraphic" in2="effect1_dropShadow_968_1923" result="shape"/>
    </filter>
    </defs>
    </svg>
    