<svg  viewBox="0 0 104 104" fill="none" xmlns="http://www.w3.org/2000/svg">
    <g filter="url(#filter0_d_968_1976)">
    <rect x="14.248" y="11.6973" width="72.404" height="72.404" rx="36.202" fill="#fff" shape-rendering="crispEdges"/>
    <path d="M58.7428 41.5544C58.6378 41.5394 58.5328 41.5394 58.4278 41.5544C56.1028 41.4794 54.2578 39.5744 54.2578 37.2344C54.2578 34.8494 56.1928 32.8994 58.5928 32.8994C60.9778 32.8994 62.9278 34.8344 62.9278 37.2344C62.9128 39.5744 61.0678 41.4794 58.7428 41.5544Z" fill="#007CB4"/>
    <path d="M63.6346 51.95C61.9546 53.075 59.5996 53.495 57.4246 53.21C57.9946 51.98 58.2946 50.615 58.3096 49.175C58.3096 47.675 57.9796 46.25 57.3496 45.005C59.5696 44.705 61.9246 45.125 63.6196 46.25C65.9896 47.81 65.9896 50.375 63.6346 51.95Z" fill="#007CB4"/>
    <path d="M42.1095 41.5544C42.2145 41.5394 42.3195 41.5394 42.4245 41.5544C44.7495 41.4794 46.5945 39.5744 46.5945 37.2344C46.5945 34.8344 44.6595 32.8994 42.2595 32.8994C39.8745 32.8994 37.9395 34.8344 37.9395 37.2344C37.9395 39.5744 39.7845 41.4794 42.1095 41.5544Z" fill="#007CB4"/>
    <path d="M42.2739 49.1753C42.2739 50.6303 42.5889 52.0103 43.1589 53.2553C41.0439 53.4803 38.8389 53.0303 37.2189 51.9653C34.8489 50.3903 34.8489 47.8253 37.2189 46.2503C38.8239 45.1703 41.0889 44.7353 43.2189 44.9753C42.6039 46.2353 42.2739 47.6603 42.2739 49.1753Z" fill="#007CB4"/>
    <path d="M50.6304 53.7044C50.5104 53.6894 50.3754 53.6894 50.2404 53.7044C47.4804 53.6144 45.2754 51.3494 45.2754 48.5594C45.2904 45.7094 47.5854 43.3994 50.4504 43.3994C53.3004 43.3994 55.6104 45.7094 55.6104 48.5594C55.5954 51.3494 53.4054 53.6144 50.6304 53.7044Z" fill="#007CB4"/>
    <path d="M45.7554 56.8104C43.4904 58.3254 43.4904 60.8154 45.7554 62.3154C48.3354 64.0404 52.5654 64.0404 55.1454 62.3154C57.4104 60.8004 57.4104 58.3104 55.1454 56.8104C52.5804 55.0854 48.3504 55.0854 45.7554 56.8104Z" fill="#007CB4"/>
    </g>
    <defs>
    <filter id="filter0_d_968_1976" x="0.0258242" y="0.0609016" width="103.435" height="103.435" filterUnits="userSpaceOnUse" color-interpolation-filters="sRGB">
    <feFlood flood-opacity="0" result="BackgroundImageFix"/>
    <feColorMatrix in="SourceAlpha" type="matrix" values="0 0 0 0 0 0 0 0 0 0 0 0 0 0 0 0 0 0 127 0" result="hardAlpha"/>
    <feOffset dx="1.29293" dy="3.87879"/>
    <feGaussianBlur stdDeviation="7.75758"/>
    <feComposite in2="hardAlpha" operator="out"/>
    <feColorMatrix type="matrix" values="0 0 0 0 0.0208531 0 0 0 0 0.263507 0 0 0 0 0.379147 0 0 0 0.05 0"/>
    <feBlend mode="normal" in2="BackgroundImageFix" result="effect1_dropShadow_968_1976"/>
    <feBlend mode="normal" in="SourceGraphic" in2="effect1_dropShadow_968_1976" result="shape"/>
    </filter>
    </defs>
    </svg>
    